<?xml version="1.0" encoding="UTF-8" standalone="no"?>
<!-- Created with Inkscape (http://www.inkscape.org/) -->

<svg
   xmlns:dc="http://purl.org/dc/elements/1.1/"
   xmlns:cc="http://creativecommons.org/ns#"
   xmlns:rdf="http://www.w3.org/1999/02/22-rdf-syntax-ns#"
   xmlns:svg="http://www.w3.org/2000/svg"
   xmlns="http://www.w3.org/2000/svg"
   xmlns:xlink="http://www.w3.org/1999/xlink"
   xmlns:sodipodi="http://sodipodi.sourceforge.net/DTD/sodipodi-0.dtd"
   xmlns:inkscape="http://www.inkscape.org/namespaces/inkscape"
   height="32"
   id="svg3261"
   inkscape:version="0.91 r13725"
   sodipodi:docname="frame-fingerprint-magic.svg"
   sodipodi:version="0.32"
   width="32"
   inkscape:export-filename="C:\_Development\PoliceAnalyzer\src\resource\frame-fingerprint-magic.png"
   inkscape:export-xdpi="312.73499"
   inkscape:export-ydpi="312.73499"
   version="1.0"
   inkscape:output_extension="org.inkscape.output.svg.inkscape">
  <metadata
     id="metadata4750">
    <rdf:RDF>
      <cc:Work
         rdf:about="">
        <dc:title></dc:title>
        <dc:description>Frame for my applications' icons</dc:description>
        <dc:subject>
          <rdf:Bag />
        </dc:subject>
        <dc:publisher>
          <cc:Agent
             rdf:about="http://www.openclipart.org">
            <dc:title />
          </cc:Agent>
        </dc:publisher>
        <dc:creator>
          <cc:Agent>
            <dc:title>Michal Duda</dc:title>
          </cc:Agent>
        </dc:creator>
        <dc:rights>
          <cc:Agent>
            <dc:title />
          </cc:Agent>
        </dc:rights>
        <dc:date />
        <dc:format>image/svg+xml</dc:format>
        <dc:type
           rdf:resource="http://purl.org/dc/dcmitype/StillImage" />
        <cc:license
           rdf:resource="http://web.resource.org/cc/PublicDomain" />
        <dc:language />
      </cc:Work>
      <cc:License
         rdf:about="http://web.resource.org/cc/PublicDomain">
        <cc:permits
           rdf:resource="http://web.resource.org/cc/Reproduction" />
        <cc:permits
           rdf:resource="http://web.resource.org/cc/Distribution" />
        <cc:permits
           rdf:resource="http://web.resource.org/cc/DerivativeWorks" />
      </cc:License>
    </rdf:RDF>
  </metadata>
  <defs
     id="defs3263">
    <linearGradient
       id="linearGradient2193">
      <stop
         id="stop2195"
         offset="0.0000000"
         style="stop-color:#d6eafa;stop-opacity:1.0000000;" />
      <stop
         id="stop2197"
         offset="1.0000000"
         style="stop-color:#e2e2c3;stop-opacity:1.0000000;" />
    </linearGradient>
    <linearGradient
       gradientTransform="scale(1.075595,0.929718)"
       gradientUnits="userSpaceOnUse"
       id="linearGradient2199"
       x1="29.482651"
       x2="43.527679"
       xlink:href="#linearGradient2193"
       y1="47.991489"
       y2="62.510647" />
    <linearGradient
       id="linearGradient2177">
      <stop
         id="stop2179"
         offset="0.0000000"
         style="stop-color:#e5faff;stop-opacity:1.0000000;" />
      <stop
         id="stop2181"
         offset="1.0000000"
         style="stop-color:#fffee5;stop-opacity:1.0000000;" />
    </linearGradient>
    <linearGradient
       gradientTransform="scale(0.770234,1.298306)"
       gradientUnits="userSpaceOnUse"
       id="linearGradient2183"
       x1="43.104752"
       x2="29.017365"
       xlink:href="#linearGradient2177"
       y1="17.221308"
       y2="4.2194395" />
    <linearGradient
       id="linearGradient2185">
      <stop
         id="stop2187"
         offset="0.0000000"
         style="stop-color:#dfbacf;stop-opacity:1.0000000;" />
      <stop
         id="stop2189"
         offset="1.0000000"
         style="stop-color:#bae7ba;stop-opacity:1.0000000;" />
    </linearGradient>
    <linearGradient
       gradientTransform="scale(1.333398,0.749964)"
       gradientUnits="userSpaceOnUse"
       id="linearGradient2191"
       x1="10.502192"
       x2="26.309233"
       xlink:href="#linearGradient2185"
       y1="54.404156"
       y2="79.766159" />
    <linearGradient
       id="linearGradient2169">
      <stop
         id="stop2171"
         offset="0.0000000"
         style="stop-color:#e1f7d3;stop-opacity:1.0000000;" />
      <stop
         id="stop2173"
         offset="1.0000000"
         style="stop-color:#d7e5f2;stop-opacity:1.0000000;" />
    </linearGradient>
    <linearGradient
       gradientTransform="scale(1.301702,0.768225)"
       gradientUnits="userSpaceOnUse"
       id="linearGradient2175"
       x1="9.6783218"
       x2="27.935955"
       xlink:href="#linearGradient2169"
       y1="5.4360852"
       y2="31.573669" />
    <linearGradient
       id="linearGradient2201">
      <stop
         id="stop2203"
         offset="0.0000000"
         style="stop-color:#abb5bd;stop-opacity:1.0000000;" />
      <stop
         id="stop2205"
         offset="1.0000000"
         style="stop-color:#c7d4ef;stop-opacity:1.0000000;" />
    </linearGradient>
    <linearGradient
       gradientUnits="userSpaceOnUse"
       id="linearGradient2207"
       x1="6.3030663"
       x2="60.306602"
       xlink:href="#linearGradient2201"
       y1="7.8242927"
       y2="59.165684" />
    <linearGradient
       id="linearGradient2161">
      <stop
         id="stop2163"
         offset="0.0000000"
         style="stop-color:#b0bfc7;stop-opacity:1.0000000;" />
      <stop
         id="stop2165"
         offset="1.0000000"
         style="stop-color:#dbeff7;stop-opacity:1.0000000;" />
    </linearGradient>
    <linearGradient
       gradientUnits="userSpaceOnUse"
       id="linearGradient2167"
       x1="61.546753"
       x2="5.7659883"
       xlink:href="#linearGradient2161"
       y1="57.822754"
       y2="6.7167969" />
    <linearGradient
       id="linearGradient1865"
       x1="-65.023436"
       x2="-212.71039"
       xlink:href="#linearGradient1601"
       y1="238.45076"
       y2="383.42744"
       gradientTransform="scale(0.897902,1.113707)"
       gradientUnits="userSpaceOnUse" />
    <linearGradient
       id="linearGradient1863"
       x1="58.723219"
       x2="-119.61194"
       xlink:href="#linearGradient1601"
       y1="178.04991"
       y2="372.88227"
       gradientTransform="scale(0.894194,1.118325)"
       gradientUnits="userSpaceOnUse" />
    <linearGradient
       id="linearGradient899">
      <stop
         id="stop900"
         offset="0.0000000"
         style="stop-color:#ffffff;stop-opacity:0.0000000;" />
      <stop
         id="stop901"
         offset="1.0000000"
         style="stop-color:#ffffff;stop-opacity:1.0000000;" />
    </linearGradient>
    <linearGradient
       id="linearGradient848"
       x1="-197.63092"
       x2="-236.11141"
       xlink:href="#linearGradient899"
       y1="380.68159"
       y2="436.55967"
       gradientTransform="scale(0.894194,1.118325)"
       gradientUnits="userSpaceOnUse" />
    <linearGradient
       id="linearGradient1731"
       x1="-219.18004"
       x2="-156.8936"
       xlink:href="#linearGradient1601"
       y1="572.91971"
       y2="397.45835"
       gradientTransform="scale(0.987334,1.012828)"
       gradientUnits="userSpaceOnUse" />
    <linearGradient
       id="linearGradient1761"
       x1="52.677472"
       x2="-83.902981"
       xlink:href="#linearGradient1753"
       y1="220.76701"
       y2="396.49017"
       gradientTransform="scale(0.894194,1.118325)"
       gradientUnits="userSpaceOnUse" />
    <linearGradient
       id="linearGradient1753">
      <stop
         id="stop1754"
         offset="0.0000000"
         style="stop-color:#000000;stop-opacity:0.45490196;" />
      <stop
         id="stop1755"
         offset="1.0000000"
         style="stop-color:#000000;stop-opacity:0.0000000;" />
    </linearGradient>
    <linearGradient
       id="linearGradient1751"
       x1="9.3148219"
       x2="-203.65021"
       xlink:href="#linearGradient1753"
       y1="95.409241"
       y2="384.01344"
       gradientTransform="scale(0.894194,1.118325)"
       gradientUnits="userSpaceOnUse" />
    <linearGradient
       id="linearGradient1752"
       x1="-345.63131"
       x2="-142.87105"
       xlink:href="#linearGradient1601"
       y1="669.9153"
       y2="401.12195"
       gradientTransform="scale(0.987334,1.012828)"
       gradientUnits="userSpaceOnUse" />
    <linearGradient
       id="linearGradient1607"
       x1="-1.7180692"
       x2="-87.625109"
       xlink:href="#linearGradient1601"
       y1="254.85888"
       y2="398.14304"
       gradientTransform="scale(0.905008,1.104962)"
       gradientUnits="userSpaceOnUse" />
    <linearGradient
       id="linearGradient1738"
       x1="-118.47699"
       x2="-32.234216"
       xlink:href="#linearGradient1601"
       y1="566.04219"
       y2="396.03963"
       gradientTransform="scale(0.987334,1.012828)"
       gradientUnits="userSpaceOnUse" />
    <linearGradient
       id="linearGradient1604"
       x1="-112.11659"
       x2="-112.11659"
       xlink:href="#linearGradient1608"
       y1="414.25149"
       y2="507.47124"
       gradientUnits="userSpaceOnUse" />
    <linearGradient
       id="linearGradient1608">
      <stop
         id="stop1609"
         offset="0.0000000"
         style="stop-color:#000000;stop-opacity:0.45517242;" />
      <stop
         id="stop1610"
         offset="1.0000000"
         style="stop-color:#ffffff;stop-opacity:0.46206897;" />
    </linearGradient>
    <linearGradient
       id="linearGradient1855"
       x1="18.752676"
       x2="-139.84261"
       xlink:href="#linearGradient1608"
       y1="603.6567"
       y2="417.2033"
       gradientUnits="userSpaceOnUse" />
    <linearGradient
       id="linearGradient1601">
      <stop
         id="stop1602"
         offset="0.0000000"
         style="stop-color:#ffffff;stop-opacity:1.0000000;" />
      <stop
         id="stop1603"
         offset="1.0000000"
         style="stop-color:#ffffff;stop-opacity:0.0000000;" />
    </linearGradient>
    <linearGradient
       id="linearGradient1757"
       x1="268.70404"
       x2="339.08928"
       xlink:href="#linearGradient1601"
       y1="703.86141"
       y2="373.7402"
       gradientTransform="scale(1.018722,0.981622)"
       gradientUnits="userSpaceOnUse" />
    <linearGradient
       id="linearGradient2089">
      <stop
         id="stop2090"
         offset="0.0000000"
         style="stop-color:#000000;stop-opacity:0.58620691;" />
      <stop
         id="stop2091"
         offset="0.73635292"
         style="stop-color:#000000;stop-opacity:0.31034482;" />
      <stop
         id="stop2092"
         offset="1.0000000"
         style="stop-color:#5f5f5f;stop-opacity:0.0000000;" />
    </linearGradient>
    <linearGradient
       id="linearGradient1848"
       x1="-34.928336"
       x2="-86.535831"
       xlink:href="#linearGradient2089"
       y1="531.33623"
       y2="321.57674"
       gradientUnits="userSpaceOnUse" />
    <linearGradient
       id="linearGradient1612">
      <stop
         id="stop1613"
         offset="0.0000000"
         style="stop-color:#868686;stop-opacity:1.0000000;" />
      <stop
         id="stop1768"
         offset="0.39350441"
         style="stop-color:#f3f3f3;stop-opacity:1.0000000;" />
      <stop
         id="stop1769"
         offset="0.47940385"
         style="stop-color:#949494;stop-opacity:1.0000000;" />
      <stop
         id="stop1614"
         offset="1.0000000"
         style="stop-color:#d3d3d3;stop-opacity:1.0000000;" />
    </linearGradient>
    <linearGradient
       id="linearGradient1616"
       x1="-125.32088"
       x2="-33.543158"
       xlink:href="#linearGradient1612"
       y1="355.21766"
       y2="620.60564"
       gradientUnits="userSpaceOnUse" />
    <linearGradient
       id="linearGradient1851">
      <stop
         id="stop1852"
         offset="0.0000000"
         style="stop-color:#000000;stop-opacity:0.37241378;" />
      <stop
         id="stop1854"
         offset="0.50000000"
         style="stop-color:#000000;stop-opacity:0.11034483;" />
      <stop
         id="stop1853"
         offset="1.0000000"
         style="stop-color:#adadad;stop-opacity:0.0000000;" />
    </linearGradient>
    <radialGradient
       cx="-289.0914"
       cy="598.36652"
       fx="-287.61839"
       fy="543.58929"
       id="radialGradient1930"
       r="125.20509"
       xlink:href="#linearGradient1851"
       gradientUnits="userSpaceOnUse" />
    <linearGradient
       id="linearGradient10152">
      <stop
         style="stop-color:#fefff3;stop-opacity:1;"
         offset="0"
         id="stop10154" />
      <stop
         style="stop-color:#314e6c;stop-opacity:1.0000000;"
         offset="1.0000000"
         id="stop10156" />
    </linearGradient>
    <linearGradient
       id="linearGradient1520">
      <stop
         id="stop1522"
         offset="0.0000000"
         style="stop-color:#7590ae;stop-opacity:1.0000000;" />
      <stop
         id="stop1523"
         offset="1.0000000"
         style="stop-color:#314e6c;stop-opacity:1.0000000;" />
    </linearGradient>
    <linearGradient
       id="linearGradient1514"
       x1="71.570862"
       x2="71.570862"
       xlink:href="#linearGradient1520"
       y1="21.297535"
       y2="55.645184"
       gradientTransform="matrix(0.180473,0,0,0.13679,2.245009,1.224659)"
       gradientUnits="userSpaceOnUse" />
    <linearGradient
       id="linearGradient1806">
      <stop
         id="stop1807"
         offset="0.0000000"
         style="stop-color:#000000;stop-opacity:0.40677965;" />
      <stop
         id="stop3276"
         offset="0.64777780"
         style="stop-color:#000000;stop-opacity:0.073446326;" />
      <stop
         id="stop1808"
         offset="1.0000000"
         style="stop-color:#000000;stop-opacity:0.0000000;" />
    </linearGradient>
    <radialGradient
       cx="24.825565"
       cy="176.56438"
       fx="27.010122"
       fy="137.43433"
       id="radialGradient1505"
       r="51.667702"
       xlink:href="#linearGradient1806"
       gradientUnits="userSpaceOnUse" />
    <linearGradient
       id="linearGradient1492">
      <stop
         id="stop1493"
         offset="0.0000000"
         style="stop-color:#c0c0c0;stop-opacity:1.0000000;" />
      <stop
         id="stop1496"
         offset="0.34923077"
         style="stop-color:#f1f1f1;stop-opacity:1.0000000;" />
      <stop
         id="stop1494"
         offset="1.0000000"
         style="stop-color:#f0f0f0;stop-opacity:1.0000000;" />
    </linearGradient>
    <linearGradient
       id="linearGradient1495"
       x1="114.46933"
       x2="55.138935"
       xlink:href="#linearGradient1492"
       y1="50.771263"
       y2="123.08019"
       gradientTransform="matrix(0.150117,0,0,0.164451,2.245009,1.224659)"
       gradientUnits="userSpaceOnUse" />
    <linearGradient
       id="linearGradient1501">
      <stop
         id="stop1502"
         offset="0.0000000"
         style="stop-color:#ffffff;stop-opacity:1.0000000;" />
      <stop
         id="stop1504"
         offset="1.0000000"
         style="stop-color:#ffffff;stop-opacity:0.0000000;" />
    </linearGradient>
    <linearGradient
       id="linearGradient1499"
       x1="687.96375"
       x2="330.88034"
       xlink:href="#linearGradient1501"
       y1="236.12772"
       y2="418.53635"
       gradientTransform="matrix(2.443826e-2,0,0,2.498456e-2,2.137325,3.909865)"
       gradientUnits="userSpaceOnUse" />
    <linearGradient
       id="linearGradient1792">
      <stop
         id="stop1793"
         offset="0.0000000"
         style="stop-color:#000000;stop-opacity:0.084745765;" />
      <stop
         id="stop1795"
         offset="0.63222224"
         style="stop-color:#000000;stop-opacity:0.38418078;" />
      <stop
         id="stop1794"
         offset="1.0000000"
         style="stop-color:#000000;stop-opacity:0.0000000;" />
    </linearGradient>
    <linearGradient
       id="linearGradient1521"
       xlink:href="#linearGradient1792"
       gradientTransform="matrix(0.218412,0,0,0.113029,2.245009,1.224659)"
       x1="11.20222"
       y1="130.73126"
       x2="107.0242"
       y2="130.73126"
       gradientUnits="userSpaceOnUse" />
    <linearGradient
       id="linearGradient1511">
      <stop
         id="stop1512"
         offset="0.0000000"
         style="stop-color:#4b6983;stop-opacity:1.0000000;" />
      <stop
         id="stop1513"
         offset="1.0000000"
         style="stop-color:#9db8d2;stop-opacity:1.0000000;" />
    </linearGradient>
    <linearGradient
       gradientTransform="matrix(0.217767,0,0,0.113364,2.245009,1.224659)"
       gradientUnits="userSpaceOnUse"
       id="linearGradient1507"
       x1="68.708969"
       x2="68.708969"
       xlink:href="#linearGradient1511"
       y1="111.90047"
       y2="191.01146" />
    <linearGradient
       id="linearGradient1517">
      <stop
         id="stop1518"
         offset="0.0000000"
         style="stop-color:#ffffff;stop-opacity:0.0000000;" />
      <stop
         id="stop1519"
         offset="1.0000000"
         style="stop-color:#ffffff;stop-opacity:1.0000000;" />
    </linearGradient>
    <linearGradient
       id="linearGradient3699">
      <stop
         id="stop3700"
         offset="0.0000000"
         style="stop-color:#5c74c6;stop-opacity:1.0000000;" />
      <stop
         id="stop3701"
         offset="1"
         style="stop-color:#fff;stop-opacity:1;" />
    </linearGradient>
    <linearGradient
       id="linearGradient2222"
       x1="15.287576"
       x2="16.041363"
       xlink:href="#linearGradient10152"
       y1="9.2615232"
       y2="47.686897"
       gradientTransform="matrix(1.413011,0,0,1.262501,-4.216873,-3.750108)"
       gradientUnits="userSpaceOnUse"
       spreadMethod="pad" />
    <linearGradient
       id="linearGradient2312"
       x1="0.45882353"
       x2="0.65490198"
       xlink:href="#linearGradient1513"
       y1="-0.58685446"
       y2="0.45070422" />
    <linearGradient
       id="linearGradient2313"
       x1="-0.0078431377"
       x2="0.59607846"
       xlink:href="#linearGradient1513"
       y1="-1.244898"
       y2="0.3605442" />
    <linearGradient
       id="linearGradient2314"
       x1="-0.4509804"
       x2="0.47058824"
       xlink:href="#linearGradient1513"
       y1="-0.15053764"
       y2="0.36559141" />
    <linearGradient
       id="linearGradient1516"
       x1="25.302732"
       x2="35.172859"
       xlink:href="#linearGradient2122"
       y1="238.17957"
       y2="171.02328"
       gradientTransform="matrix(0.475217,0,0,5.194885e-2,2.245006,1.22467)"
       gradientUnits="userSpaceOnUse" />
    <linearGradient
       id="linearGradient2223"
       x1="-0.18232045"
       x2="0.68508285"
       xlink:href="#linearGradient1513"
       y1="-0.43962848"
       y2="0.42414862" />
    <linearGradient
       id="linearGradient2122">
      <stop
         id="stop2123"
         offset="0.0000000"
         style="stop-color:#000000;stop-opacity:0.40784314;" />
      <stop
         id="stop2124"
         offset="1.0000000"
         style="stop-color:#000000;stop-opacity:0.0000000;" />
    </linearGradient>
    <linearGradient
       id="linearGradient2138"
       x1="1.3783784"
       x2="0.58378381"
       xlink:href="#linearGradient2122"
       y1="0.25386998"
       y2="0.13003096" />
    <linearGradient
       id="linearGradient2224"
       x1="-0.14213198"
       x2="0.49753696"
       xlink:href="#linearGradient1513"
       y1="-0.28792569"
       y2="0.35603714" />
    <linearGradient
       id="linearGradient1512"
       x1="0.99512196"
       x2="0.32682925"
       xlink:href="#linearGradient1918"
       y1="0.64396286"
       y2="0.3003096" />
    <linearGradient
       id="linearGradient2315"
       x1="0.27843139"
       x2="0.4509804"
       xlink:href="#linearGradient1513"
       y1="-0.063694268"
       y2="0.61146498" />
    <linearGradient
       id="linearGradient2317">
      <stop
         id="stop2318"
         offset="0.0000000"
         style="stop-color:#d6d6d6;stop-opacity:1.0000000;" />
      <stop
         id="stop2322"
         offset="0.25769231"
         style="stop-color:#eaeaea;stop-opacity:1.0000000;" />
      <stop
         id="stop2320"
         offset="0.70594490"
         style="stop-color:#919191;stop-opacity:1.0000000;" />
      <stop
         id="stop2321"
         offset="0.73347497"
         style="stop-color:#d2d2d2;stop-opacity:1.0000000;" />
      <stop
         id="stop2319"
         offset="1.0000000"
         style="stop-color:#a6a6a6;stop-opacity:1.0000000;" />
    </linearGradient>
    <linearGradient
       id="linearGradient2316"
       x1="0.47450981"
       x2="0.80392158"
       xlink:href="#linearGradient2317"
       y1="0.21771218"
       y2="0.5202952" />
    <linearGradient
       id="linearGradient1513">
      <stop
         id="stop1514"
         offset="0.0000000"
         style="stop-color:#ffffff;stop-opacity:1.0000000;" />
      <stop
         id="stop1515"
         offset="1.0000000"
         style="stop-color:#ffffff;stop-opacity:0.0000000;" />
    </linearGradient>
    <linearGradient
       id="linearGradient2121"
       x1="0.41568628"
       x2="0.59607846"
       xlink:href="#linearGradient1513"
       y1="0.27687296"
       y2="0.44299674" />
    <radialGradient
       cx="0.5"
       cy="0.5"
       fx="0.38431373"
       fy="0.47619048"
       id="radialGradient2541"
       r="0.5"
       xlink:href="#linearGradient1918" />
    <linearGradient
       id="linearGradient1918">
      <stop
         id="stop1919"
         offset="0.0000000"
         style="stop-color:#000000;stop-opacity:0.31372550;" />
      <stop
         id="stop1921"
         offset="1.0000000"
         style="stop-color:#000000;stop-opacity:0.0000000;" />
    </linearGradient>
    <radialGradient
       cx="41.875938"
       cy="37.865574"
       fx="42.023739"
       fy="37.865574"
       id="radialGradient1502"
       r="12.562782"
       xlink:href="#linearGradient1918"
       gradientUnits="userSpaceOnUse" />
    <linearGradient
       inkscape:collect="always"
       xlink:href="#linearGradient1601"
       id="linearGradient21936"
       x1="-118.47699"
       y1="566.04219"
       x2="-32.234216"
       y2="396.03963"
       gradientTransform="scale(0.987334,1.012828)"
       gradientUnits="userSpaceOnUse" />
  </defs>
  <sodipodi:namedview
     bordercolor="#666666"
     borderopacity="1.0"
     id="base"
     inkscape:cx="23.130685"
     inkscape:cy="12.938376"
     inkscape:pageopacity="0.0"
     inkscape:pageshadow="2"
     inkscape:window-height="942"
     inkscape:window-width="1272"
     inkscape:window-x="0"
     inkscape:window-y="25"
     inkscape:zoom="6.2586411"
     pagecolor="#ffffff"
     showborder="true"
     inkscape:current-layer="layer1"
     showgrid="false"
     inkscape:window-maximized="0" />
  <path
     d="M 54.438721 37.865574 A 12.562782 12.562782 0 1 1  29.313156,37.865574 A 12.562782 12.562782 0 1 1  54.438721 37.865574 z"
     id="path1934"
     sodipodi:cx="41.875938"
     sodipodi:cy="37.865574"
     sodipodi:rx="12.562782"
     sodipodi:ry="12.562782"
     sodipodi:type="arc"
     style="fill:url(#radialGradient1502);fill-opacity:1;fill-rule:evenodd;stroke-width:1pt"
     transform="matrix(1.470408,0,0,0.43509,-45.57471,12.84505)"
     inkscape:export-xdpi="311.82001"
     inkscape:export-ydpi="311.82001"
     inkscape:export-filename="C:\_Development\PoliceAnalyzer\src\resource\frame-fingerprint.png" />
  <rect
     height="26.046963"
     id="rect3698"
     rx="2.87391"
     ry="2.87391"
     style="fill:url(#linearGradient2222);fill-opacity:1;fill-rule:evenodd;stroke:#393939;stroke-width:1.551;stroke-miterlimit:4;stroke-dasharray:none;stroke-opacity:1"
     width="29.337105"
     x="1.3314476"
     y="1.6029593"
     inkscape:export-xdpi="311.82001"
     inkscape:export-ydpi="311.82001"
     inkscape:export-filename="C:\_Development\PoliceAnalyzer\src\resource\frame-fingerprint.png" />
  <path
     inkscape:connector-curvature="0"
     id="path2832"
     style="fill:#000000"
     d="m 22.902942,25.686217 c -0.09801,-0.16975 0.169454,-0.419227 0.346994,-0.3237 0.107446,0.05781 0.08256,0.170244 -0.05534,0.249859 -0.137889,0.07961 -0.269134,0.112849 -0.291654,0.07385 z m -1.965575,0.680694 c -0.07963,-0.137907 -0.04656,-0.247764 0.07344,-0.244179 0.120009,0.0036 0.257515,0.07465 0.305562,0.15787 0.04806,0.08324 0.015,0.193094 -0.07345,0.244159 -0.08844,0.05107 -0.225952,-0.01998 -0.305551,-0.15785 z m 1.18751,-0.542827 c -0.0893,-0.154667 0.19362,-0.567818 0.503944,-0.735889 0.105004,-0.05674 0.111686,0.084 0.01497,0.312979 -0.199614,0.472599 -0.397221,0.633664 -0.518904,0.422902 z m 2.069809,-1.614204 c -0.04331,-0.07501 0.133767,-0.431835 0.3935,-0.792919 0.259723,-0.361105 0.516387,-0.861633 0.570333,-1.112306 0.118635,-0.551288 0.268959,-0.663634 0.455519,-0.340504 0.0766,0.132668 0.0464,0.294829 -0.06709,0.360354 -0.113494,0.06553 -0.402691,0.521959 -0.642648,1.014279 -0.460058,0.943897 -0.581507,1.092996 -0.709619,0.8711 z m 0.789957,-0.488648 c -0.05106,-0.08844 0.01997,-0.225948 0.15787,-0.305562 0.137888,-0.07961 0.247769,-0.04655 0.244166,0.07344 -0.0036,0.120016 -0.07464,0.257508 -0.157871,0.305562 -0.08322,0.04805 -0.193094,0.01501 -0.244165,-0.07344 z m 1.226169,-0.685578 c -0.09466,-0.05093 -0.08792,-0.196533 0.01497,-0.323537 0.113628,-0.140272 0.240293,-0.138733 0.323406,0.0052 0.150166,0.260095 -0.06696,0.464357 -0.338368,0.318309 z m -5.218821,2.821018 c -0.08363,-0.045 0.112875,-0.196135 0.436668,-0.335873 0.323795,-0.139732 0.605049,-0.225781 0.62499,-0.191242 0.06988,0.121033 -0.911162,0.608099 -1.06168,0.527123 z m 2.313156,-1.494336 c 0.09671,-0.228977 0.242343,-0.454733 0.323654,-0.501679 0.203693,-0.117602 1.146838,-1.986815 1.069808,-2.120235 -0.03428,-0.05938 0.071,-0.29481 0.233956,-0.52322 0.162951,-0.228386 0.315959,-0.381193 0.340004,-0.339545 0.07932,0.137387 -0.189255,1.285573 -0.318108,1.359967 -0.06942,0.04009 -0.340934,0.483273 -0.603355,0.984865 -0.262422,0.501591 -0.554173,0.909672 -0.648338,0.906863 -0.09416,-0.0028 -0.174178,0.09467 -0.177857,0.216624 -0.0037,0.121975 -0.09416,0.269216 -0.201126,0.327222 -0.106874,0.05815 -0.115349,-0.08188 -0.01864,-0.310864 z m -3.020311,1.710003 c -0.178137,0.0489 -0.358685,0.02865 -0.401226,-0.04503 -0.04254,-0.07368 0.08923,-0.179685 0.29283,-0.235561 0.20361,-0.05586 0.407094,-0.03765 0.452205,0.04048 0.04511,0.07814 0.05907,0.144098 0.03104,0.146615 -0.028,0.0026 -0.196727,0.04457 -0.374853,0.09349 z m 1.941035,-1.187287 c -0.05106,-0.08844 -0.02048,-0.202592 0.06796,-0.253657 0.08844,-0.05107 0.202596,-0.02047 0.253656,0.06796 0.05107,0.08846 0.02048,0.202591 -0.06796,0.253656 -0.08845,0.05107 -0.202587,0.02049 -0.253657,-0.06796 z m 4.505202,-2.595195 c -0.125865,-0.218006 0.08177,-0.518343 0.283343,-0.409879 0.09637,0.05185 0.09105,0.198194 -0.01184,0.32522 -0.102879,0.127025 -0.225067,0.165106 -0.271514,0.08465 z m -4.195657,2.129045 c -0.132483,-0.107312 -0.389317,-0.03575 -0.712392,0.198501 -0.374985,0.271879 -0.444622,0.284905 -0.27015,0.05058 0.225386,-0.302728 0.218324,-0.311134 -0.171486,-0.204174 -0.2752,0.07551 -0.364692,0.184052 -0.27701,0.335922 0.181653,0.314632 -0.652849,0.677768 -0.944908,0.411161 -0.251245,-0.22935 -2.364747,-0.201633 -2.231442,0.02926 0.04471,0.07744 0.449668,0.121725 0.899883,0.09835 0.822932,-0.04272 1.346958,0.08742 1.047737,0.260174 -0.08844,0.05107 -0.247326,0.0463 -0.353037,-0.01059 -0.105731,-0.0569 -0.319037,-0.03022 -0.47403,0.05927 -0.154995,0.08948 -0.495275,0.117095 -0.756161,0.06134 -0.260895,-0.05575 -0.862686,-0.14741 -1.337315,-0.20369 -0.474629,-0.05628 -0.906935,-0.178496 -0.960698,-0.271616 -0.05375,-0.0931 0.295396,-0.09085 0.775861,0.005 0.480471,0.09585 0.893296,0.100867 0.917336,0.01109 0.02406,-0.08975 -0.158224,-0.179032 -0.405055,-0.198338 -0.633335,-0.04956 -1.31971,-0.238637 -1.688129,-0.464984 -0.541319,-0.332566 -0.04361,-0.402887 0.662699,-0.09363 0.359835,0.157561 1.087441,0.284767 1.616923,0.282664 0.529475,-0.0021 1.103643,0.01459 1.275921,0.03708 0.172264,0.02244 0.418381,-8.87e-4 0.546901,-0.05192 0.128489,-0.05107 0.547785,-0.219889 0.931704,-0.375308 0.689719,-0.279188 1.500806,-0.372138 1.858425,-0.212988 0.261314,0.116302 0.461359,-0.328164 0.208879,-0.464026 -0.124703,-0.06709 -0.107069,-0.109218 0.04386,-0.104683 0.180309,0.0054 0.256239,0.124241 0.265634,0.415783 0.01533,0.475462 -0.175735,0.637988 -0.469899,0.39972 z m -1.907875,0.308446 c -0.516748,-0.02082 -0.672808,0.152018 -0.184886,0.204805 0.24397,0.0264 0.458037,-0.006 0.475715,-0.07188 0.01765,-0.06595 -0.11321,-0.125759 -0.290826,-0.132936 z m -1.414812,1.453848 c -0.112932,-0.06076 -0.287054,-0.0096 -0.386938,0.113756 -0.09989,0.123322 -0.178923,0.134223 -0.17562,0.02424 0.0033,-0.109982 -0.17495,-0.160232 -0.396094,-0.111637 -0.385192,0.08462 -1.315246,-0.08107 -1.413863,-0.251882 -0.05773,-0.1 0.780664,-0.113348 1.208701,-0.01925 0.171058,0.0376 0.58561,0.03892 0.921228,0.0029 0.335622,-0.03599 0.641793,-0.01075 0.680386,0.0561 0.104979,0.181828 -0.202596,0.312352 -0.437805,0.185805 z M 23.34706,23.49216 c 0.05047,-0.295538 0.01973,-0.337922 -0.166889,-0.230175 -0.125808,0.07264 -0.362948,0.0961 -0.526967,0.05214 -0.228525,-0.06123 -0.225052,-0.213549 0.01481,-0.651799 0.358987,-0.655844 0.431083,-0.720841 0.557148,-0.502489 0.0501,0.08676 -0.06362,0.307602 -0.252697,0.490763 -0.189063,0.183157 -0.306527,0.397528 -0.260995,0.476392 0.158453,0.274448 0.468518,-0.08305 0.668755,-0.771093 0.110866,-0.380881 0.247674,-0.612639 0.304029,-0.515031 0.05636,0.09761 -0.01082,0.440857 -0.149274,0.762743 -0.138443,0.321906 -0.175307,0.544198 -0.08192,0.494006 0.09333,-0.05033 0.292168,-0.457943 0.441704,-0.90615 0.149519,-0.448196 0.210852,-0.723219 0.136255,-0.611213 -0.17002,0.255377 -0.538021,0.07882 -0.393919,-0.188971 0.169695,-0.31542 0.07056,-1.346086 -0.196496,-2.04291 -0.18559,-0.484241 -0.278135,-0.584609 -0.374273,-0.405921 -0.09692,0.180117 -0.190176,0.07142 -0.386595,-0.45056 -0.142377,-0.378375 -0.352075,-0.851214 -0.466002,-1.050786 -0.1139,-0.199588 -0.129891,-0.407442 -0.03548,-0.46195 0.09847,-0.05685 0.207291,0.06315 0.255256,0.28146 0.05209,0.237101 0.156794,0.338306 0.277756,0.268469 0.239252,-0.138133 -0.897932,-1.780384 -1.309206,-1.89068 -0.147521,-0.03951 -0.357124,-0.225813 -0.465772,-0.413998 -0.202683,-0.351058 -1.627912,-1.521668 -2.984983,-2.451666 -0.992081,-0.679914 -2.527491,-1.108065 -3.160254,-0.881307 -1.265861,0.453784 -2.017496,1.899665 -1.816319,3.493755 0.126915,1.005201 1.273741,2.918512 1.971211,3.288679 0.113874,0.06044 0.268088,0.186234 0.342691,0.279522 0.07462,0.09331 0.567416,0.357259 1.095142,0.586561 0.825349,0.358648 1.022144,0.369727 1.407843,0.07939 0.246586,-0.185669 0.524377,-0.387977 0.617301,-0.449553 0.171108,-0.113424 0.151437,-1.004298 -0.02907,-1.316945 -0.05406,-0.09365 -0.180461,0.184176 -0.280863,0.617391 -0.178714,0.771008 -0.567042,1.058216 -0.657667,0.486405 -0.02549,-0.160839 -0.136625,-0.235886 -0.251267,-0.169698 -0.113057,0.06527 -0.407034,0.07535 -0.653296,0.02232 -0.264239,-0.05685 -0.404104,-0.02079 -0.341289,0.08801 0.05856,0.101423 0.303372,0.191215 0.544048,0.199562 0.240666,0.0084 0.471691,0.07423 0.513353,0.146394 0.04168,0.07219 -0.137501,0.112574 -0.398199,0.08971 -0.562524,-0.0493 -1.425076,-0.564873 -1.416644,-0.846777 0.0093,-0.310875 0.387976,-0.221444 0.439216,0.103179 0.03111,0.196327 0.104975,0.217841 0.22771,0.0663 0.09992,-0.123339 0.33905,-0.166006 0.531412,-0.09481 0.504725,0.186794 1.467132,-0.402703 1.246444,-0.763502 -0.09328,-0.152523 -0.294032,-0.65251 -0.446108,-1.1111 -0.390469,-1.17746 -1.814831,-2.335137 -2.44492,-1.987279 -0.07233,0.03998 -0.04502,0.11919 0.06071,0.176081 0.105725,0.05689 0.116453,0.147182 0.02383,0.200658 -0.09263,0.05347 -0.04758,0.413406 0.10011,0.799866 0.147687,0.386456 0.201134,0.741537 0.118776,0.789087 -0.08237,0.04756 -0.147009,-0.0049 -0.143664,-0.116659 0.0034,-0.111712 -0.0953,-0.206165 -0.219222,-0.209876 -0.123923,-0.0038 -0.221228,-0.123052 -0.216245,-0.265199 0.01378,-0.39266 -0.144415,-0.705861 -0.308633,-0.61105 -0.08063,0.04655 -0.06302,0.229358 0.03911,0.406253 0.102128,0.176891 0.107571,0.366726 0.0121,0.421846 -0.205579,0.118691 -0.612586,-1.000549 -0.440474,-1.211312 0.06112,-0.07485 0.04859,-0.169711 -0.02784,-0.210828 -0.07642,-0.04112 -0.09425,-0.371411 -0.03963,-0.733995 0.115636,-0.767441 0.756992,-1.32574 1.477987,-1.286591 0.775385,0.04212 0.937391,-0.180435 0.276504,-0.379817 -0.494059,-0.149057 -0.698024,-0.105553 -1.131012,0.241188 -0.678159,0.54309 -1.003989,1.183757 -0.999024,1.9643 0.0022,0.34166 -0.0589,0.658122 -0.135755,0.703234 -0.07683,0.04513 -0.115181,-0.06164 -0.0852,-0.237192 0.02998,-0.175567 -0.0046,-0.335052 -0.07682,-0.354403 -0.175867,-0.04713 0.436484,-1.919225 0.681452,-2.08336 0.106072,-0.07101 0.357041,-0.249307 0.557771,-0.39611 0.339476,-0.24828 0.70972,-0.219676 2.341898,0.180922 0.412401,0.10122 1.615538,0.877011 2.398351,1.546447 0.240058,0.205295 0.22802,0.23269 -0.07915,0.180253 -0.199234,-0.03402 -0.425159,-0.170832 -0.502055,-0.30402 -0.178072,-0.308428 -2.082191,-1.424363 -2.257586,-1.323099 -0.283404,0.163624 -0.03088,0.622955 0.293532,0.533931 0.345837,-0.09491 1.632319,0.723951 2.555847,1.626834 0.170631,0.166809 0.375466,0.26566 0.455184,0.219635 0.07971,-0.04602 0.04061,-0.168175 -0.0869,-0.27145 -0.12751,-0.103272 -0.15957,-0.229496 -0.07125,-0.280487 0.146594,-0.08464 0.650096,0.319181 1.088084,0.872666 0.0961,0.121437 0.352337,0.397934 0.569452,0.614471 0.282958,0.282213 0.324118,0.391598 0.145335,0.386249 -0.13719,-0.0041 -0.460973,-0.267919 -0.71951,-0.586217 -0.258526,-0.318277 -0.549401,-0.581085 -0.646383,-0.583987 -0.310978,-0.0093 0.270414,0.687502 0.884292,1.059853 0.723655,0.438936 1.10061,1.048245 0.964003,1.558105 -0.05608,0.209264 -0.02529,0.513267 0.06841,0.675562 0.124642,0.215887 0.07104,0.322323 -0.199828,0.396645 -0.265364,0.07285 -0.324509,0.180694 -0.208716,0.381252 0.139746,0.242046 0.18029,0.229195 0.301422,-0.0954 0.120018,-0.321697 0.147849,-0.333862 0.195553,-0.08555 0.03058,0.159236 -0.07705,0.351058 -0.239156,0.426312 -0.163458,0.07588 -0.294061,0.403994 -0.293206,0.736681 0.0018,0.696634 -0.578228,1.397007 -1.532362,1.850198 -1.43168,0.68005 -4.225232,-0.123405 -5.328172,-1.532381 -0.247842,-0.31664 -0.241455,-0.34298 0.04493,-0.185061 0.183665,0.101288 0.331,0.281546 0.32743,0.400602 -0.0036,0.119072 0.0521,0.182743 0.123693,0.141512 0.07162,-0.04121 0.536542,0.166139 1.033169,0.460758 1.393786,0.826892 2.535888,0.917749 3.772494,0.300162 0.979325,-0.489102 1.026309,-0.541766 1.240517,-1.390717 0.122447,-0.485297 0.1394,-1.026526 0.03769,-1.202692 -0.140769,-0.243818 -0.215426,-0.08113 -0.312584,0.681321 -0.106091,0.832332 -0.22763,1.070918 -0.71907,1.411619 -0.325283,0.225485 -0.78414,0.465048 -1.019846,0.532094 -0.544929,0.155345 -1.978221,-0.12721 -3.032856,-0.597922 -1.009719,-0.450615 -1.265161,-0.804167 -0.349207,-0.483344 0.369386,0.129395 0.701635,0.287267 0.738337,0.350837 0.125243,0.216927 1.811044,0.666535 1.856938,0.495253 0.02516,-0.09389 0.09261,-0.08958 0.149858,0.0096 0.150967,0.261482 1.331592,-0.194819 1.469723,-0.568068 0.06276,-0.169561 0.272407,-0.333394 0.46588,-0.364063 0.241529,-0.03828 0.281304,-0.09368 0.126881,-0.176767 -0.26625,-0.143248 -0.836013,0.146536 -0.790877,0.402263 0.04248,0.240666 -1.366749,0.499164 -1.886523,0.34605 -0.385984,-0.1137 -0.378418,-0.123282 0.111023,-0.140821 0.832963,-0.02984 1.491186,-0.382663 1.653414,-0.886205 0.09315,-0.289181 0.18691,-0.382765 0.25878,-0.258283 0.06199,0.107374 0.159258,0.108726 0.216154,0.003 0.05689,-0.105734 0.06164,-0.264599 0.01059,-0.353037 -0.05107,-0.08845 -0.139395,-0.07432 -0.196278,0.03141 -0.111346,0.206963 -0.295995,0.0055 -0.227907,-0.248628 0.08953,-0.334117 0.675906,-0.01487 0.689793,0.375524 0.0238,0.668933 0.258741,0.482768 0.265642,-0.210493 0.0037,-0.364025 0.09955,-0.715542 0.213146,-0.781128 0.113599,-0.06559 0.164759,-0.19162 0.113699,-0.28006 -0.05106,-0.08843 -0.0156,-0.205408 0.0788,-0.259912 0.09847,-0.05685 0.207291,0.06315 0.255256,0.28146 0.04599,0.209311 0.155104,0.339282 0.242482,0.288835 0.21082,-0.121717 -0.100686,-1.147818 -0.553868,-1.824381 -0.480195,-0.716913 -0.734258,-0.918539 -0.860892,-0.683177 -0.06197,0.1152 -0.227918,-0.02229 -0.409758,-0.339482 -0.383828,-0.669616 -1.954147,-2.029692 -2.659903,-2.303896 l -0.53312,-0.207102 0.582414,0.414198 c 0.320327,0.227811 0.70667,0.490351 0.858532,0.583442 0.320029,0.19616 0.800124,0.73105 1.533477,1.70853 0.44139,0.588315 0.481763,0.730261 0.267811,0.941653 -0.255805,0.252713 -0.202871,0.479282 0.331252,1.418334 0.164127,0.288509 0.225967,0.566389 0.137456,0.61749 -0.08851,0.05111 -0.157532,-0.02044 -0.153382,-0.158993 0.0049,-0.1637 -0.03814,-0.166995 -0.122943,-0.0094 -0.09925,0.184494 -0.150278,0.132074 -0.213175,-0.219019 -0.103392,-0.577108 -1.450745,-2.785481 -1.748116,-2.865245 -0.124446,-0.03336 -0.07268,0.127412 0.119047,0.369755 0.186557,0.235799 0.296636,0.507828 0.24464,0.604499 -0.05202,0.09666 -0.208084,-0.01892 -0.346804,-0.256818 -0.138699,-0.237925 -0.46068,-0.674035 -0.715461,-0.969176 -0.527618,-0.611193 -0.468455,-0.796196 0.10507,-0.328682 0.211723,0.172571 0.495308,0.250073 0.630154,0.17222 0.186636,-0.107754 0.354766,0.04819 0.703946,0.652993 0.252304,0.437002 0.560562,0.797611 0.685016,0.801349 0.20893,0.0063 -0.386744,-0.929275 -1.108217,-1.740487 -0.349779,-0.393298 -1.338976,-1.031805 -2.131271,-1.375734 -0.534117,-0.231829 -0.61162,-0.309213 -0.351076,-0.350505 0.206857,-0.03279 0.258231,-0.09396 0.134719,-0.16042 -0.289752,-0.155902 -1.599341,0.385826 -1.815381,0.750965 -0.145135,0.245274 -0.07518,0.244377 0.3297,-0.0042 0.596232,-0.366063 1.604476,-0.150358 2.739872,0.586179 0.771434,0.500425 0.864226,0.595617 0.682648,0.700451 -0.06686,0.03861 -0.350463,-0.09689 -0.630215,-0.30107 -0.379001,-0.276615 -0.511785,-0.295604 -0.520894,-0.07449 -0.01,0.241869 -0.04198,0.254436 -0.173016,0.06794 -0.08841,-0.125846 -0.184688,-0.29364 -0.213951,-0.372884 -0.02923,-0.07926 -0.329376,-0.270258 -0.666979,-0.424449 -0.495814,-0.226434 -0.713367,-0.213585 -1.131479,0.06688 -0.284696,0.190971 -0.444639,0.386486 -0.355435,0.434488 0.08921,0.048 0.135597,0.24313 0.103052,0.433649 -0.07464,0.437094 0.02189,0.380948 0.422276,-0.245579 0.28616,-0.447796 0.358855,-0.484398 0.726196,-0.365663 0.725689,0.23457 1.389919,0.821932 2.048646,1.811534 0.460931,0.692471 0.588528,1.000322 0.448105,1.081396 -0.14867,0.08584 -0.125057,0.132402 0.09735,0.191984 0.222414,0.0596 0.322513,6.52e-4 0.412743,-0.242961 0.09637,-0.260396 0.174206,-0.25787 0.408372,0.01319 0.159117,0.184193 0.31526,0.506257 0.346976,0.715693 0.05066,0.334498 0.02731,0.333136 -0.192039,-0.01108 -0.245501,-0.385258 -0.248792,-0.381535 -0.195469,0.220066 0.02983,0.336559 0.04304,0.742121 0.02937,0.901275 -0.02839,0.329946 -1.378016,1.411876 -1.502851,1.204731 -0.15151,-0.251461 -1.594362,-0.646954 -1.656623,-0.454099 -0.03389,0.104966 -0.0623,0.08783 -0.06315,-0.03806 -8.53e-4,-0.125902 -0.235239,-0.376543 -0.520841,-0.556956 -0.678283,-0.428504 -0.921576,-0.694638 -1.65422,-1.809646 -1.141714,-1.73752 -1.054245,-3.905157 0.207187,-5.133527 0.475394,-0.462986 0.712282,-0.568069 1.462542,-0.64875 0.492394,-0.05295 0.910931,-0.154731 0.93006,-0.226186 0.01915,-0.07144 -0.0058,-0.130582 -0.0554,-0.131418 -1.036136,-0.01742 -1.557859,0.09537 -2.226475,0.481397 -0.70337,0.406091 -0.839835,0.587593 -1.16384,1.547817 -0.249948,0.740784 -0.413658,1.007002 -0.513231,0.834537 -0.08042,-0.139282 0.09907,-0.746984 0.398854,-1.350414 0.513703,-1.034044 0.60354,-1.124235 1.561582,-1.567277 0.819151,-0.378827 1.015646,-0.535809 1.011987,-0.808492 -0.0041,-0.306385 0.05194,-0.3352 0.592465,-0.304653 0.328353,0.01855 0.613517,-0.02791 0.633701,-0.1032433 0.05191,-0.193725 1.217817,-0.225321 1.327144,-0.03596 0.130714,0.2264043 -0.171439,0.3560843 -0.386109,0.1657293 -0.134121,-0.1189363 -0.209977,-0.05584 -0.289445,0.240757 -0.09829,0.366812 -0.0093,0.432087 1.017895,0.746869 0.877421,0.268893 1.387961,0.586942 2.315494,1.442488 0.654459,0.603714 1.239798,1.184022 1.300734,1.289566 0.06095,0.105565 0.171124,0.157124 0.244826,0.114572 0.186889,-0.1079 -0.124009,-0.623071 -0.455827,-0.755302 -0.151053,-0.0602 -0.232167,-0.133979 -0.180259,-0.163948 0.05191,-0.02997 -0.233222,-0.299548 -0.633611,-0.599056 -0.684659,-0.512151 -0.74311,-0.635902 -0.364093,-0.770919 0.15019,-0.05349 -0.0028,-0.243315 -0.639646,-0.793729 -0.293265,-0.253453 -0.29133,-0.25475 0.137094,-0.09179 0.491564,0.186996 0.810348,0.633581 0.656442,0.919621 -0.06552,0.121768 0.06952,0.302216 0.370774,0.495448 0.645133,0.413792 1.547763,1.33213 1.970818,2.00518 0.192242,0.30582 0.415068,0.518264 0.495143,0.472033 0.169943,-0.09812 -0.836845,-1.472939 -1.425624,-1.946751 -0.220277,-0.177262 -0.486702,-0.417265 -0.592056,-0.533354 -0.105352,-0.116069 -0.314818,-0.308715 -0.465483,-0.428107 -0.158346,-0.125475 -0.200949,-0.259209 -0.100964,-0.316936 0.09514,-0.05492 0.06004,-0.203511 -0.078,-0.330195 -0.546406,-0.501486 0.680727,0.1066 1.845644,0.914602 1.632214,1.132115 1.478142,1.37361 -0.173358,0.271706 -1.486879,-0.992053 -1.7148,-1.002809 -0.365351,-0.01724 0.476003,0.347647 0.893678,0.664066 0.92814,0.703116 0.03448,0.03907 0.163079,0.157787 0.285801,0.263825 0.12272,0.106037 0.444223,0.402848 0.714454,0.659583 0.371172,0.352641 0.414275,0.365794 0.176315,0.0539 -0.173257,-0.22709 -0.278127,-0.481387 -0.233065,-0.565143 0.123762,-0.230039 1.46446,1.330603 2.189862,2.549089 0.352581,0.592226 0.695394,1.045589 0.761828,1.007465 0.06642,-0.03814 0.163392,0.0044 0.215444,0.09463 0.05208,0.09019 -0.105185,0.235616 -0.349457,0.323171 -0.357719,0.128242 -0.406356,0.224617 -0.250128,0.495212 0.106703,0.184815 0.149126,0.684597 0.09428,1.110651 -0.05485,0.426054 -0.04238,0.740094 0.02766,0.697831 0.221524,-0.133782 0.33813,-0.500096 0.275417,-0.866163 -0.03457,-0.201778 0.0468,-0.350596 0.189377,-0.346329 0.230625,0.0069 -0.283648,2.186305 -0.785808,3.330114 -0.17996,0.409882 -0.182665,0.407822 -0.09522,-0.07209 0.113097,-0.620626 0.03108,-0.773716 -0.237098,-0.442608 -0.228719,0.282409 -0.275893,0.0017 -0.129969,-0.773508 0.04375,-0.23233 0.003,-0.442966 -0.09064,-0.468042 -0.0936,-0.02507 -0.20199,0.158721 -0.240917,0.408449 -0.07885,0.505998 -0.104231,0.419865 -0.216957,-0.736359 -0.0965,-0.989756 -0.211092,-1.409961 -0.571154,-2.094108 -0.154701,-0.293951 -0.216925,-0.57161 -0.138269,-0.617021 0.207005,-0.119515 0.868083,1.510488 0.901053,2.221616 0.02537,0.546901 0.06932,0.616045 0.46007,0.723882 0.406032,0.112037 0.422343,0.141533 0.271216,0.49059 -0.197222,0.455523 -0.121097,0.62283 0.199215,0.437897 0.132671,-0.0766 0.182028,-0.241787 0.10968,-0.367097 -0.07234,-0.125289 -0.06545,-0.32226 0.01533,-0.43768 0.116487,-0.166448 0.09448,-0.205342 -0.106422,-0.187981 -0.180879,0.01562 -0.225215,-0.195808 -0.155184,-0.739994 0.06217,-0.483015 -0.0019,-0.851727 -0.175179,-1.007385 -0.225332,-0.202496 -0.218395,-0.220808 0.03955,-0.104506 0.270374,0.121911 0.291088,0.102683 0.152767,-0.141806 -0.08802,-0.155532 -0.232366,-0.241045 -0.320815,-0.189979 -0.08844,0.05107 -0.198692,0.02723 -0.24497,-0.05292 -0.04628,-0.08015 0.05347,-0.199849 0.221674,-0.265961 0.168194,-0.06613 0.194376,-0.0981 0.05822,-0.07096 -0.34975,0.06958 -1.542884,-2.170316 -1.247053,-2.341115 0.114944,-0.06637 0.142838,-0.23524 0.06198,-0.375285 -0.08085,-0.140028 -0.219402,-0.171117 -0.307895,-0.06907 -0.08907,0.102722 -0.378369,0.01449 -0.648082,-0.197622 -0.475635,-0.374059 -0.475271,-0.367155 0.01534,0.291606 0.487368,0.654413 0.488208,0.666848 0.02794,0.412698 -0.458689,-0.253287 -0.457033,-0.236315 0.04955,0.507435 0.737667,1.083032 0.809774,1.133146 0.589849,0.409905 -0.120024,-0.394697 0.147942,0.02354 0.701959,1.095635 0.749536,1.45043 0.873573,1.817101 0.75853,2.24226 l -0.137553,0.508247 -0.09336,-0.589346 c -0.156579,-0.988382 -0.811079,-2.451302 -1.07781,-2.409033 -0.128339,0.02037 -0.443416,-0.295521 -0.700178,-0.701941 -0.256735,-0.406408 -0.554229,-0.833181 -0.661082,-0.94838 -0.106857,-0.115197 -0.384505,-0.413188 -0.617028,-0.662234 -0.2325,-0.249007 -0.482287,-0.418371 -0.555086,-0.376341 -0.07279,0.04202 0.06395,0.245757 0.303847,0.452662 0.239911,0.206947 0.529531,0.59455 0.64359,0.861314 0.152698,0.357135 -0.04599,0.215594 -0.753474,-0.536761 -0.528449,-0.561959 -0.958192,-1.109866 -0.954968,-1.21755 0.0033,-0.107685 -0.07076,-0.151523 -0.164434,-0.09744 -0.09367,0.05408 -0.314072,-0.150696 -0.489786,-0.455041 -0.175713,-0.304345 -0.406785,-0.555975 -0.513496,-0.559167 -0.106714,-0.0032 -0.356017,-0.173047 -0.553999,-0.377437 -0.466957,-0.482039 -2.892951,-1.43606 -3.594407,-1.413518 -0.776767,0.02503 -0.750864,0.305765 0.02892,0.313529 0.357586,0.0036 0.647759,0.08665 0.644821,0.184633 -0.003,0.09798 0.107478,0.113021 0.245365,0.03341 0.137887,-0.07961 0.282668,-0.09083 0.321734,-0.02494 0.03911,0.06587 0.452667,0.239119 0.919097,0.384941 0.46643,0.145823 0.938104,0.355937 1.048179,0.466913 0.11006,0.110974 0.574149,0.569226 1.031298,1.018323 0.45716,0.44909 0.850837,0.912488 0.874838,1.029777 0.02399,0.117268 0.147005,0.21633 0.273338,0.220112 0.126338,0.0037 0.274146,0.08385 0.328449,0.177909 0.06226,0.107837 -0.03307,0.148514 -0.25807,0.11008 -0.19623,-0.03349 -0.422046,-0.173938 -0.501801,-0.312078 -0.07975,-0.138138 -0.491755,-0.491505 -0.91556,-0.785249 -0.423799,-0.293748 -0.916699,-0.642685 -1.095296,-0.775408 -0.303685,-0.225657 -0.300442,-0.229817 0.05005,-0.06392 1.054289,0.498984 1.089644,0.506389 0.725809,0.152029 -0.190036,-0.185092 -0.518227,-0.429811 -0.729294,-0.543815 -0.315697,-0.170509 -0.386955,-0.151819 -0.401796,0.105327 -0.02174,0.376891 0.39815,0.77052 1.886383,1.768317 0.164112,0.110035 0.370484,0.324966 0.458624,0.477629 0.08813,0.152644 0.426634,0.32034 0.752226,0.372664 0.420262,0.0675 0.749346,0.299662 1.134483,0.800353 0.335334,0.43595 0.480741,0.740917 0.380772,0.798634 -0.08895,0.05136 -0.234345,-0.03355 -0.323105,-0.188682 -0.480194,-0.839221 -0.742706,-1.128769 -1.11354,-1.228124 -0.225877,-0.06053 -0.429086,-0.04133 -0.451589,0.04266 -0.0225,0.08398 0.09529,0.15678 0.261716,0.161763 0.407526,0.01221 1.707234,2.156337 1.375219,2.268659 -0.123326,0.04171 -0.182452,0.148208 -0.13138,0.236666 0.05106,0.08843 0.165208,0.119031 0.253655,0.06796 0.08844,-0.05107 0.248385,0.05884 0.355421,0.244229 0.263621,0.456603 0.734558,2.382468 0.675873,2.763864 -0.02603,0.169088 0.0064,0.246862 0.07205,0.172816 0.118271,-0.133391 0.267373,-0.06398 0.416147,0.193707 0.09108,0.157748 -0.626292,1.762587 -0.97227,2.175109 -0.203818,0.243014 -0.230834,0.231545 -0.178336,-0.07583 z m 2.615613,-6.929079 c -0.114828,-0.14008 -0.20453,-0.369642 -0.199302,-0.510202 0.0052,-0.140507 -0.162445,-0.395633 -0.372564,-0.566896 -0.210132,-0.17128 -0.363606,-0.380202 -0.341082,-0.464328 0.02255,-0.08409 -0.04344,-0.104164 -0.146638,-0.04459 -0.23043,0.133039 0.08823,0.730051 0.394553,0.739234 0.121967,0.0037 0.218968,0.09965 0.215554,0.213329 -0.0034,0.113671 -0.110345,0.203535 -0.237618,0.199732 -0.139135,-0.0041 -0.139669,0.05881 -0.0013,0.158056 0.126588,0.09075 0.347929,0.26584 0.491894,0.389098 0.143957,0.123263 0.294034,0.205468 0.333502,0.18268 0.03946,-0.02279 -0.02219,-0.156037 -0.137014,-0.296122 z M 18.333511,12.01153 c 0.04573,-0.146039 -0.01708,-0.129555 -0.162542,0.04267 -0.176011,0.208387 -0.248915,0.205878 -0.28308,-0.0098 -0.02693,-0.169924 -0.369938,-0.377214 -0.826723,-0.499607 -0.984575,-0.263816 -1.069355,-0.0633 -0.143499,0.33935 0.386283,0.168003 0.835487,0.418829 0.998251,0.557406 0.165795,0.141165 0.306298,0.154338 0.319518,0.02994 0.01297,-0.122112 0.05712,-0.32912 0.0981,-0.460019 z m -1.46987,-1.851089 c 0.04221,-0.02437 -0.0016,-0.08648 -0.09744,-0.138025 -0.0958,-0.05155 -0.290059,0.02077 -0.431694,0.160713 -0.141633,0.139942 -0.35159,0.203763 -0.466491,0.141992 -0.114936,-0.06185 -0.294238,-0.06107 -0.398434,0.0017 -0.104184,0.06282 0.07334,0.151542 0.394555,0.197234 0.321194,0.0457 0.660227,-0.0075 0.753399,-0.118129 0.09316,-0.110659 0.203918,-0.221134 0.246144,-0.245514 z m 4.875225,13.695404 c -0.10572,-0.05687 -0.04322,-0.189437 0.138887,-0.294576 0.182112,-0.105143 0.372895,-0.118817 0.423955,-0.03038 0.05107,0.08846 -0.01143,0.221017 -0.138877,0.294597 -0.127449,0.07358 -0.318224,0.08725 -0.423965,0.03036 z m 5.018163,-2.999518 c 0.03401,-0.199249 0.161546,-0.419798 0.283388,-0.490143 0.121838,-0.07035 0.166206,-0.181952 0.09858,-0.248009 -0.127961,-0.124998 0.174743,-1.196287 0.369843,-1.308929 0.198588,-0.114655 -0.326096,1.826414 -0.573709,2.122455 -0.203614,0.243412 -0.230571,0.232003 -0.17808,-0.07539 z M 20.73692,23.992 c -0.287573,-0.154721 -0.250453,-0.202633 0.649799,-0.838669 0.863958,-0.610406 1.033168,-0.639679 0.584846,-0.101156 -0.593519,0.712913 -1.033667,1.047965 -1.234645,0.939825 z m -1.088711,0.420958 c -0.24519,0.03491 -0.468029,0.02495 -0.49521,-0.02213 -0.101976,-0.176627 0.549254,-0.419359 0.980829,-0.365582 0.523398,0.06521 0.250784,0.282887 -0.48562,0.387707 z m -1.329615,0.02154 c -0.367959,-0.136176 -0.229302,-0.289046 0.244462,-0.269512 0.181013,0.0074 0.257666,0.08725 0.195244,0.203249 -0.05651,0.105032 -0.254418,0.13482 -0.439708,0.06626 z m 1.051816,-0.591855 c -0.328831,0.04121 -0.956043,0.01097 -1.393849,-0.0672 -0.478339,-0.08539 -0.731178,-0.05923 -0.63359,0.06558 0.08931,0.11423 0.23206,0.348149 0.31717,0.519796 0.130116,0.262348 0.09611,0.302095 -0.213248,0.249281 -0.274574,-0.0469 -0.336478,-0.121554 -0.243763,-0.2939 0.08707,-0.161793 -0.08285,-0.278185 -0.567033,-0.388405 -0.380217,-0.08654 -0.639315,-0.187376 -0.575764,-0.224067 0.06356,-0.03669 -0.155894,-0.175341 -0.487661,-0.308091 -0.507129,-0.202923 -1.59771,-0.917228 -1.71768,-1.125023 -0.0193,-0.03342 0.03591,-0.101741 0.122668,-0.15183 0.08676,-0.0501 0.311881,0.06805 0.500282,0.262509 0.188399,0.194487 0.813443,0.581376 1.388993,0.859788 1.295389,0.62657 1.230015,0.605161 1.27977,0.419477 0.02278,-0.08502 -0.389558,-0.364655 -0.916329,-0.6214 -1.217267,-0.593311 -2.382012,-1.4891 -2.127388,-1.636108 0.07167,-0.04139 0.945052,0.575279 1.252983,0.884683 0.07455,0.0749 0.383206,0.249299 0.68592,0.387546 0.302711,0.138249 0.578248,0.299636 0.612313,0.35864 0.117113,0.202845 0.819098,0.309963 0.911084,0.139014 0.05063,-0.09411 0.35779,-0.13288 0.682579,-0.08616 0.640437,0.09216 0.99597,-0.02404 0.849551,-0.277639 -0.103689,-0.179595 0.491428,-0.459281 0.796763,-0.374452 0.10897,0.0303 0.03955,0.114632 -0.154267,0.187461 -0.193821,0.07281 -0.311283,0.203602 -0.261066,0.29058 0.09753,0.168921 0.162863,0.152699 0.93761,-0.232908 0.435267,-0.216627 0.468505,-0.206926 0.25785,0.07523 -0.202652,0.271416 -0.156117,0.276835 0.28733,0.03345 0.291105,-0.159631 0.574256,-0.212345 0.629386,-0.116855 0.118358,0.205002 -1.000212,0.612814 -1.210386,0.441277 -0.07432,-0.06064 -0.291308,-0.01867 -0.482163,0.09332 -0.255657,0.150156 -0.268609,0.206865 -0.049,0.215915 0.513349,0.02115 0.147899,0.341823 -0.47914,0.420414 z m 0.178103,-0.431027 c 0.0054,-0.178671 -0.39475,-0.188182 -1.735157,-0.04129 -0.110904,0.01217 0.08058,0.110643 0.42553,0.218853 0.344948,0.108212 0.663742,0.128788 0.708435,0.04573 0.04468,-0.08305 0.169228,-0.103589 0.27661,-0.0459 0.243956,0.131256 0.316504,0.09163 0.324563,-0.177394 z m 2.975244,-1.644812 c 0.155826,-0.386598 0.220864,-0.811087 0.144524,-0.943312 -0.09278,-0.160696 -0.02212,-0.266036 0.213167,-0.317711 0.272767,-0.05993 0.321574,-0.217537 0.216951,-0.700465 -0.11048,-0.509882 -0.09321,-0.557631 0.09492,-0.262773 0.126459,0.198167 0.241704,0.614296 0.2561,0.924706 0.03225,0.695104 -0.251369,1.645192 -0.409399,1.371476 -0.06694,-0.115947 -0.164901,-0.09709 -0.241232,0.0464 -0.320381,0.602375 -0.529293,0.512478 -0.275023,-0.118302 z m 0.670125,-0.787936 c 0.04645,-0.423493 0.03867,-0.429096 -0.103776,-0.07465 -0.0847,0.210743 -0.110367,0.458752 -0.05705,0.551101 0.05332,0.09235 0.10002,0.12595 0.103776,0.07465 0.0038,-0.0513 0.02941,-0.299309 0.05705,-0.5511 z m 1.230521,-0.296919 c -0.203825,-0.210418 -0.330685,-0.490724 -0.29031,-0.64143 0.03944,-0.147244 -0.03371,-0.45288 -0.162569,-0.679199 -0.128882,-0.226306 -0.226808,-0.560536 -0.217667,-0.742704 0.02856,-0.569172 0.573295,0.554282 0.602889,1.243397 0.02089,0.486738 0.08284,0.613119 0.303744,0.619753 0.204052,0.0062 0.25744,0.08317 0.201712,0.291106 -0.05571,0.207955 -0.171589,0.183883 -0.437793,-0.09092 z m -2.772714,1.723344 c -0.05107,-0.08846 -0.185886,-0.107095 -0.2996,-0.04144 -0.244723,0.141291 -0.647717,-0.468807 -0.42573,-0.64454 0.08382,-0.06637 0.218752,-0.172884 0.299807,-0.236735 0.333199,-0.262443 0.592117,-1.017007 0.439603,-1.281168 -0.188003,-0.32563 -0.0034,-0.474936 0.611985,-0.494749 0.315496,-0.01016 0.37505,-0.04489 0.219462,-0.129259 -0.227913,-0.122642 -0.538797,-1.391487 -0.441569,-1.802173 0.03773,-0.1593 0.08043,-0.134094 0.119121,0.07036 0.03315,0.175268 0.23039,0.816367 0.438313,1.424664 0.209843,0.613968 0.276971,1.051611 0.150892,0.98378 -0.173738,-0.09348 -0.22893,-0.06195 -0.235312,0.133303 -0.0042,0.14101 -0.12165,0.274429 -0.260928,0.296511 -0.139291,0.02206 -0.327341,0.282067 -0.417895,0.577792 -0.123419,0.403 -0.224573,0.505399 -0.403874,0.408913 -0.169927,-0.09143 -0.241293,-0.05874 -0.246436,0.112789 -0.0039,0.132922 0.05405,0.206227 0.128891,0.163015 0.07485,-0.04321 0.230541,0.05987 0.345997,0.22907 0.115463,0.169199 0.178195,0.32595 0.139507,0.348287 -0.03873,0.02236 -0.112191,-0.0317 -0.163261,-0.120158 z m 0.556951,-2.512897 c -0.116004,-0.06242 -0.195791,0.01423 -0.203258,0.195228 -0.01952,0.473797 0.133342,0.612443 0.269518,0.244483 0.0686,-0.185316 0.03877,-0.3832 -0.06625,-0.439714 z m -0.292081,2.228906 c -0.06851,-0.118664 0.288308,-1.091053 0.434838,-1.184924 0.06188,-0.03962 0.131575,0.04853 0.154956,0.195969 0.0425,0.26814 -0.490222,1.161421 -0.589795,0.988955 z m -1.681526,0.244233 c -0.105732,-0.05689 -0.119867,-0.145209 -0.03142,-0.196272 0.08844,-0.05107 0.247316,-0.04632 0.353037,0.01059 0.10572,0.05687 0.119866,0.14521 0.03141,0.196278 -0.08844,0.05107 -0.247325,0.0463 -0.353036,-0.01059 z m 4.433335,-2.53416 c -0.05107,-0.08846 -0.04631,-0.247321 0.01059,-0.353037 0.05689,-0.105733 0.145206,-0.119876 0.196279,-0.03141 0.05106,0.08843 0.0463,0.247302 -0.01059,0.353037 -0.05689,0.105717 -0.14522,0.11985 -0.196278,0.03141 z m -9.482704,5.115277 c -0.07961,-0.137887 -0.04656,-0.247763 0.07345,-0.244159 0.119999,0.0036 0.257505,0.07464 0.305551,0.157851 0.04806,0.08324 0.01501,0.193113 -0.07344,0.244179 -0.08844,0.05107 -0.225951,-0.01998 -0.305561,-0.157871 z m 0.944317,-0.727819 c -2.373915,-1.030603 -3.001843,-1.395023 -2.702044,-1.568112 0.08152,-0.04707 0.431169,0.11291 0.776973,0.355474 0.345817,0.242581 0.690003,0.45392 0.764874,0.469666 0.418966,0.08808 1.754679,0.746414 1.726656,0.850999 -0.01819,0.06796 -0.273111,0.01935 -0.566448,-0.108009 z m 11.14242,-6.219947 c -0.104856,-0.165461 -0.121686,-0.282422 -0.03739,-0.259816 0.08429,0.02259 0.170077,0.157985 0.190639,0.300889 0.02272,0.157917 -0.03737,0.141831 -0.153253,-0.04108 z m -9.04822,4.779673 c -0.185328,-0.06858 -0.378245,-0.04802 -0.428683,0.04572 -0.05044,0.09374 -0.156835,0.05766 -0.236446,-0.08024 -0.189805,-0.328752 -0.156671,-0.337865 0.665271,-0.182598 0.384577,0.07264 0.6177,0.179255 0.518041,0.236948 -0.09967,0.05767 -0.332853,0.04875 -0.518183,-0.01983 z m 8.463939,-4.648355 c -0.01927,-0.03339 0.02235,-0.215809 0.09249,-0.40536 0.106655,-0.288168 0.135926,-0.291787 0.178675,-0.02217 0.04364,0.275342 -0.16715,0.607707 -0.271172,0.427535 z m -2.252954,0.792058 c -0.221016,-0.87315 -0.866295,-2.175161 -0.976527,-1.970357 -0.06322,0.11751 0.01039,0.430748 0.163576,0.696083 0.153192,0.265336 0.199377,0.480082 0.102607,0.47716 -0.298296,-0.0089 -0.724864,-1.215252 -0.479779,-1.356752 0.122992,-0.07101 0.140061,-0.273859 0.03794,-0.450737 -0.102131,-0.176896 -0.126107,-0.356022 -0.0533,-0.39806 0.128993,-0.07447 0.892582,1.306737 1.123211,2.03171 0.06339,0.199261 0.203713,0.528305 0.311851,0.73122 0.108154,0.202905 0.119356,0.413526 0.02495,0.468031 -0.09441,0.05451 -0.208938,-0.04822 -0.254515,-0.228283 z m -10.046358,5.63021 c -0.13118,-0.106266 -0.223313,-0.249845 -0.204743,-0.319126 0.01856,-0.06927 0.157561,-6.34e-4 0.308893,0.152531 0.321455,0.325353 0.244276,0.44879 -0.104145,0.166595 z m 0.522661,-0.328263 c -0.093,-0.0249 -0.212262,-0.120067 -0.265035,-0.211472 -0.05817,-0.100767 0.02221,-0.134515 0.204215,-0.08575 0.165099,0.04425 0.284366,0.139415 0.265048,0.211491 -0.01932,0.07208 -0.111209,0.110673 -0.20423,0.08572 z m 1.010657,-1.98437 c -0.455355,-0.23243 -0.896152,-0.540764 -0.979544,-0.685202 -0.0834,-0.144438 -0.231033,-0.283912 -0.32808,-0.309919 -0.09705,-0.02601 -0.260379,-0.153367 -0.362959,-0.283026 -0.292215,-0.369359 0.132163,-0.148474 1.105388,0.575302 0.490985,0.365146 1.105687,0.70977 1.365995,0.765857 0.332726,0.07168 0.407047,0.140219 0.250218,0.230765 -0.122705,0.07085 -0.595655,-0.06136 -1.05103,-0.293771 z m -2.01507,1.420736 c -0.105721,-0.05689 -0.115595,-0.147677 -0.02193,-0.201755 0.09366,-0.05408 0.212087,-0.02595 0.263147,0.06249 0.05107,0.08846 0.06093,0.179235 0.02193,0.201755 -0.03901,0.02252 -0.157412,-0.0056 -0.263145,-0.06249 z m 12.582636,-7.359133 c -0.163079,-0.28246 -0.0906,-0.379762 0.176017,-0.236314 0.09843,0.05297 0.131664,0.184222 0.07384,0.291658 -0.05781,0.107456 -0.170218,0.08261 -0.249861,-0.05534 z m -13.237527,7.323216 c -0.09842,-0.05295 -0.131644,-0.184207 -0.07383,-0.291638 0.0578,-0.107474 0.170218,-0.08261 0.249862,0.05534 0.163079,0.28246 0.0906,0.379763 -0.17603,0.236294 z m 4.782929,-3.035044 c -1.117102,0.176932 -1.697748,0.0397 -2.899469,-0.685284 -0.392123,-0.236574 -0.712232,-0.324658 -0.716073,-0.197048 -0.0117,0.390229 -0.257002,0.401272 -0.581023,0.02618 -0.169937,-0.196722 -0.246635,-0.393645 -0.170457,-0.437626 0.07617,-0.04398 0.201183,0.02858 0.277779,0.161248 0.0766,0.132667 0.211632,0.199438 0.30008,0.148373 0.203789,-0.117659 0.0065,-0.462887 -0.500599,-0.876294 -0.217251,-0.177084 -0.506715,-0.25746 -0.643254,-0.178629 -0.189889,0.109633 -0.282819,0.02463 -0.395236,-0.361454 -0.08084,-0.277625 -0.09973,-0.564221 -0.04198,-0.636859 0.170158,-0.214077 -0.04581,-0.438113 -0.28769,-0.298461 -0.233031,0.134541 -0.14262,0.711051 0.208114,1.327126 0.113567,0.199781 0.134797,0.40461 0.0469,0.455356 -0.0879,0.05074 -0.208756,-0.04833 -0.268587,-0.220159 -0.520518,-1.49489 -0.536799,-1.621541 -0.219648,-1.708563 0.186234,-0.05111 0.271801,-0.179141 0.202256,-0.302665 -0.19432,-0.345227 -0.376742,-2.317515 -0.222538,-2.406544 0.214577,-0.123886 0.318222,0.162298 0.187085,0.516612 -0.106911,0.28888 0.239596,1.620684 0.430359,1.654099 0.04489,0.0079 0.01269,0.145585 -0.07156,0.306044 -0.08755,0.166743 -0.07197,0.246268 0.03636,0.185605 0.10922,-0.06095 0.309851,0.120025 0.473137,0.426973 1.117319,2.100352 3.50643,3.32414 5.264629,2.696882 0.389355,-0.138934 0.684786,-0.298632 0.656537,-0.354902 -0.121754,-0.24252 0.186325,-1.44693 0.347883,-1.360001 0.09794,0.05268 0.110153,0.393796 0.02714,0.758005 -0.083,0.364229 -0.09308,0.630306 -0.02237,0.591282 0.07102,-0.03845 0.06049,0.06189 -0.02268,0.224222 -0.190543,0.37189 -0.121774,0.344951 -1.395014,0.546612 z m -5.135641,-2.819129 c -0.108439,-0.0848 -0.09271,0.02672 0.03495,0.247843 0.127667,0.221126 0.216381,0.290496 0.197163,0.154187 -0.01922,-0.136308 -0.123664,-0.317212 -0.232113,-0.40203 z m -0.395045,5.121784 c -0.508925,-0.414813 -0.729931,-0.773631 -0.543014,-0.881547 0.147247,-0.08501 1.040864,0.916687 0.989335,1.108996 -0.0165,0.06153 -0.217343,-0.0408 -0.446335,-0.22744 z m 8.053475,-4.501142 c -0.298666,-0.177468 -0.678306,-1.380802 -0.473019,-1.499324 0.154762,-0.08936 0.2478,0.01692 0.342888,0.391676 0.07176,0.282861 0.207744,0.581456 0.302181,0.663549 0.196192,0.170545 0.04115,0.570769 -0.172047,0.444098 z m 5.393624,-3.224707 c -0.270083,-0.24873 -1.157202,-1.271675 -1.332013,-1.535931 -0.255757,-0.386658 -1.710539,-1.627635 -2.580671,-2.201453 -0.449717,-0.296557 -1.355002,-0.717854 -2.011762,-0.936202 -0.65676,-0.218349 -1.242165,-0.486651 -1.300882,-0.5962253 -0.05871,-0.109578 0.423499,-0.02293 1.07161,0.1925303 0.64811,0.215466 1.130123,0.304688 1.071121,0.198309 -0.05898,-0.106394 -0.205455,-0.196377 -0.325465,-0.199983 -0.120004,-0.0036 -0.26262,-0.0835 -0.316925,-0.1775583 -0.06226,-0.107838 0.03307,-0.148506 0.258063,-0.110089 0.196239,0.03351 0.41682,0.164885 0.490179,0.2919483 0.07336,0.127059 0.172408,0.158463 0.220125,0.06979 0.04771,-0.08866 0.413197,0.03231 0.812196,0.26887 0.398998,0.236561 0.780954,0.398047 0.8488,0.358876 0.06784,-0.03917 0.321876,0.05209 0.564512,0.202798 0.242645,0.150711 0.487886,0.187167 0.544977,0.08106 0.05711,-0.106126 0.10095,-0.09711 0.09744,0.02003 -0.0036,0.117151 0.206036,0.348789 0.465731,0.514698 0.259662,0.165929 0.401766,0.3423 0.315788,0.391939 -0.08598,0.04964 -0.274476,-0.01038 -0.418876,-0.133389 -0.35689,-0.303997 -3.372263,-1.567716 -3.409375,-1.42891 -0.01635,0.061 0.229181,0.234355 0.545626,0.385223 0.31644,0.15087 0.813677,0.405121 1.104969,0.565014 0.291283,0.159873 0.567201,0.220844 0.613138,0.135452 0.04593,-0.08538 0.350831,0.09734 0.677545,0.406046 0.326706,0.30871 0.707165,0.566838 0.845446,0.573636 0.1799,0.0088 0.19368,0.04665 0.04841,0.132858 -0.188813,0.112121 -0.511683,-0.0749 -1.182439,-0.684822 -0.150169,-0.136541 -0.287647,-0.193718 -0.305506,-0.127056 -0.01787,0.06667 0.445693,0.608845 1.030131,1.20484 0.584436,0.596009 1.243224,1.341212 1.46398,1.655997 0.396031,0.564751 0.442551,0.802367 0.09424,0.481629 z m -12.891136,7.347515 c -0.08921,-0.0239 -0.248135,-0.194853 -0.353172,-0.37991 -0.157477,-0.277374 -0.138721,-0.310137 0.106664,-0.186642 0.246568,0.124098 0.277714,0.07398 0.181618,-0.292098 l -0.116003,-0.44189 0.431916,0.259498 c 0.525911,0.315932 0.633019,0.465015 0.421775,0.586977 -0.08844,0.05107 -0.225953,-0.01998 -0.305562,-0.15787 -0.07961,-0.137889 -0.19205,-0.162791 -0.249861,-0.05534 -0.05783,0.107432 -0.03057,0.23548 0.06055,0.284508 0.202993,0.109213 0.04773,0.443242 -0.17794,0.382774 z m 7.694348,-5.16988 c -0.114954,-0.06188 -0.176509,-0.233662 -0.136807,-0.381823 0.05092,-0.190059 0.123257,-0.163195 0.245673,0.09125 0.197515,0.410548 0.183527,0.44788 -0.108863,0.290571 z M 13.740581,21.35874 C 13.545904,21.177304 13.13895,20.701462 12.94273,20.425832 12.808895,20.23783 12.663167,20.104828 12.618891,20.130261 c -0.04428,0.02544 -0.436847,-0.519893 -0.872362,-1.211821 -0.435503,-0.691909 -0.733379,-1.291422 -0.661939,-1.332206 0.07147,-0.04075 0.432378,0.418169 0.802061,1.019887 0.592852,0.964964 1.327931,1.836976 2.02331,2.400215 0.122194,0.09897 0.142075,0.226215 0.04416,0.282745 -0.09791,0.05653 -0.194004,0.08787 -0.213531,0.06967 z m -1.329692,-0.411589 c -0.125013,-0.134199 -0.326137,-0.524634 -0.446956,-0.867632 -0.121988,-0.34633 -0.122525,-0.477114 -0.0012,-0.294119 0.120146,0.181214 0.394241,0.529518 0.6091,0.773994 0.406944,0.463058 0.253503,0.832689 -0.160958,0.387763 z m 1.113304,-0.802678 c -0.228795,-0.163227 -0.353613,-0.33278 -0.277377,-0.376795 0.133529,-0.0771 0.754971,0.443663 0.713631,0.598009 -0.01114,0.04154 -0.207448,-0.05799 -0.436246,-0.221219 z m -2.149801,1.276351 c -0.442217,-0.352129 -0.547379,-0.601736 -0.216123,-0.512972 0.152596,0.04088 0.327982,0.224266 0.389744,0.407492 0.108319,0.321345 0.10216,0.325081 -0.173679,0.105381 z m 0.670698,-0.101665 c -0.04303,-0.03413 -0.285544,-0.328288 -0.538938,-0.653715 -0.34916,-0.448415 -0.390059,-0.574159 -0.16893,-0.519363 0.160471,0.03976 0.402997,0.333934 0.538927,0.653695 0.135948,0.319777 0.211971,0.553512 0.168941,0.519383 z m -1.357019,0.265287 c -0.104867,-0.16548 -0.121675,-0.282402 -0.03739,-0.259815 0.08429,0.02259 0.170077,0.157985 0.190656,0.30088 0.02272,0.157916 -0.03737,0.14183 -0.153256,-0.04107 z m 5.63501,-3.42143 c -0.283264,-0.132037 -0.413349,-0.282881 -0.348268,-0.403853 0.05714,-0.106195 -0.01711,-0.357566 -0.164998,-0.558593 -0.198812,-0.270255 -0.192019,-0.394433 0.02609,-0.476514 0.162228,-0.06107 0.298427,-0.226979 0.302696,-0.368707 0.0049,-0.162285 -0.03676,-0.17501 -0.112412,-0.03439 -0.187323,0.348149 -0.62232,-0.125064 -0.640749,-0.697082 -0.02155,-0.668411 0.101988,-0.716874 0.734003,-0.288031 0.779025,0.528611 1.678566,2.447454 1.260511,2.688818 -0.0877,0.05063 -0.156763,0.0018 -0.153452,-0.108534 0.0065,-0.219525 -0.705554,-0.467595 -0.945172,-0.329251 -0.24114,0.139223 0.01559,0.42214 0.336849,0.371223 0.162065,-0.02568 0.331971,0.01792 0.377571,0.0969 0.151701,0.262754 -0.214491,0.321558 -0.67264,0.108 z m 0.177981,-1.994204 c -0.735052,-1.030937 -1.02029,-1.108385 -0.816993,-0.221796 0.07709,0.336192 0.138312,0.374355 0.29338,0.182909 0.144834,-0.178816 0.255053,-0.139594 0.422533,0.150491 0.303081,0.524949 0.223083,0.728095 -0.238075,0.604529 -0.451647,-0.121019 -0.535709,0.02206 -0.181524,0.308944 0.142612,0.115512 0.431646,0.103106 0.659226,-0.02829 0.389662,-0.224972 0.384337,-0.263378 -0.138567,-0.996778 z m 8.663363,-2.781482 c -0.093,-0.0249 -0.212275,-0.120086 -0.265037,-0.211472 -0.05817,-0.100768 0.02221,-0.134516 0.204216,-0.08575 0.165098,0.04425 0.284364,0.139416 0.265047,0.211491 -0.01932,0.07208 -0.111208,0.110673 -0.20423,0.08572 z m -12.293092,6.070026 c -0.16309,-0.282479 -0.09061,-0.379781 0.176017,-0.236314 0.09842,0.05295 0.131654,0.184201 0.07384,0.291657 -0.05781,0.107457 -0.170218,0.08261 -0.249861,-0.05534 z m -2.318474,0.812035 c -0.173188,-0.299971 -0.208764,-0.516013 -0.08435,-0.512283 0.229282,0.0069 0.509298,0.562747 0.430888,0.855361 -0.02589,0.09662 -0.181832,-0.05778 -0.346545,-0.343077 z m 2.696813,-1.271135 c -0.07961,-0.137888 -0.04656,-0.247763 0.07345,-0.244159 0.120009,0.0036 0.257505,0.07464 0.305562,0.15787 0.04805,0.08322 0.015,0.193093 -0.07345,0.244159 -0.08844,0.05107 -0.225951,-0.01998 -0.305562,-0.15787 z m 1.739865,-0.866327 c 0.0033,-0.109749 -0.08359,-0.181235 -0.193046,-0.158825 -0.109474,0.02239 -0.402857,-0.322995 -0.65199,-0.767569 -0.249117,-0.444558 -0.548479,-0.970241 -0.665235,-1.168181 -0.116731,-0.197954 -0.137869,-0.402836 -0.0469,-0.455354 0.101738,-0.05874 0.366779,0.303961 0.688708,0.942471 0.354486,0.703086 0.664879,1.111855 0.962112,1.267058 0.391323,0.204314 0.409665,0.245916 0.169588,0.384524 -0.148062,0.08548 -0.266508,0.06562 -0.263218,-0.04414 z m 0.447903,-0.419846 c -0.09301,-0.02492 -0.233052,-0.161155 -0.311218,-0.302753 -0.11673,-0.211413 -0.08131,-0.222589 0.197983,-0.0625 0.345079,0.197802 0.42269,0.448162 0.113238,0.365251 z m -5.362161,2.913073 c -0.09438,-0.02529 -0.1935312,-0.184435 -0.2203472,-0.353651 -0.03556,-0.224298 -0.09025,-0.236613 -0.2018322,-0.04546 -0.1188966,0.203669 -0.1374382,0.192901 -0.083039,-0.04822 0.103633,-0.459382 0.4095677,-0.422806 0.5521444,0.06598 0.06856,0.235037 0.04744,0.406652 -0.04693,0.381368 z m 1.245712,-0.911667 c -0.104867,-0.165481 -0.121686,-0.282421 -0.0374,-0.259834 0.08429,0.02259 0.170077,0.157984 0.190656,0.300879 0.02273,0.157935 -0.03736,0.141831 -0.153244,-0.04105 z m -0.0029,-0.498642 c -0.16063,-0.113628 -0.479477,-0.514792 -0.708534,-0.891462 -0.250422,-0.411801 -0.543665,-0.690028 -0.7354552,-0.697781 -0.2646758,-0.01071 -0.2713115,-0.04097 -0.038962,-0.177849 0.2514212,-0.148155 0.2505142,-0.385551 -0.0027,-0.69857 -0.04877,-0.06029 -0.0086,-0.155866 0.08934,-0.212393 0.09791,-0.05653 0.2003332,0.03803 0.2276142,0.210142 0.02728,0.172097 0.10671,0.513265 0.176515,0.758166 0.104781,0.367565 0.164663,0.398668 0.343195,0.178266 0.190686,-0.235421 0.218095,-0.210011 0.231778,0.214775 0.0086,0.264991 0.195513,0.702352 0.415501,0.971914 0.443305,0.54321 0.443878,0.657588 0.0017,0.344822 z m 3.307461,-2.391999 c -0.20457,-0.299807 -0.115645,-0.492028 0.189737,-0.41021 0.182184,0.04882 0.284385,0.565282 0.129551,0.654674 -0.06016,0.03473 -0.203844,-0.07528 -0.3193,-0.244482 z m -5.2672094,2.504986 c -0.4327503,-0.648833 -0.625015,-1.109366 -0.5652605,-1.354017 0.028058,-0.114905 0.2191238,0.160747 0.4245743,0.612536 0.4799964,1.05555 0.5316144,1.327593 0.1406833,0.741483 z M 10.285885,18.82062 C 10.072847,18.6054 9.9146068,18.369357 9.9342328,18.296101 c 0.05473,-0.204242 0.5120262,0.222261 0.6322612,0.589689 0.07868,0.240442 0.0049,0.223317 -0.280613,-0.06518 z m 1.363616,-0.922801 c -0.105725,-0.05688 -0.115595,-0.147676 -0.02193,-0.201753 0.09366,-0.05408 0.21208,-0.02596 0.263145,0.06249 0.05107,0.08844 0.06093,0.179234 0.02193,0.201753 -0.039,0.02252 -0.157418,-0.0056 -0.263146,-0.06249 z m -3.1552488,1.405524 c -0.048049,-0.08322 -0.040827,-0.237824 0.016058,-0.343559 0.056885,-0.105725 0.1685616,-0.07942 0.248176,0.05848 0.079607,0.137888 0.072385,0.292494 -0.016058,0.343559 -0.088443,0.05107 -0.2001244,0.02475 -0.248176,-0.05847 z M 9.4232901,18.312832 C 9.2670844,18.042276 9.2243012,17.82346 9.3282121,17.826576 c 0.1757674,0.0053 0.5772167,0.863805 0.4407567,0.94259 -0.0339,0.01958 -0.1894634,-0.185756 -0.3456796,-0.456331 z m 1.5665669,-0.96327 c -0.353903,-0.444418 -0.525629,-0.906764 -0.548493,-1.477326 -0.0305,-0.758887 -0.07214,-0.880251 -0.26401,-0.769474 -0.07424,0.04287 -0.113566,0.330916 -0.08738,0.640089 0.02712,0.32017 -0.03304,0.494241 -0.1397612,0.40437 -0.2749574,-0.231533 -0.07864,-1.322072 0.2234442,-1.241127 0.158157,0.04237 0.239371,-0.12289 0.228349,-0.464737 -0.0094,-0.291771 0.04304,-0.565228 0.116546,-0.607668 0.208855,-0.120583 0.308758,0.172232 0.178671,0.523705 -0.163179,0.440904 -0.04605,1.657691 0.220729,2.292727 0.206046,0.49046 0.250598,0.923851 0.07191,0.69946 z m 0.244233,-0.605566 c -0.511172,-1.537734 -0.173894,-4.293739 0.636762,-5.202264 0.5499,-0.616429 0.421367,-0.71716 -0.208627,-0.163494 -0.25073,0.220349 -0.544995,0.776849 -0.653912,1.236689 -0.201084,0.848906 -0.373992,1.110626 -0.541742,0.820073 -0.05107,-0.08844 0.0157,-0.22348 0.148373,-0.300077 0.132669,-0.0766 0.199438,-0.211632 0.148373,-0.30008 -0.252087,-0.436626 -0.660463,0.483122 -0.512831,1.155005 0.04585,0.208684 -0.02286,0.440742 -0.152671,0.515692 -0.3132642,0.180862 -0.3252532,-0.331791 -0.03398,-1.453088 0.17713,-0.681841 0.164623,-0.801245 -0.06325,-0.604521 -0.2960892,0.255631 -0.5381011,2.222435 -0.4179516,3.396669 0.03826,0.373918 0.01076,0.664105 -0.061097,0.64485 -0.071876,-0.01926 -0.1430632,-0.30216 -0.1582066,-0.628678 -0.015144,-0.326519 -0.053029,-0.675431 -0.084184,-0.775389 -0.031164,-0.09994 -0.0026,-0.485642 0.063405,-0.857105 0.066039,-0.371463 0.067289,-0.766782 0.00279,-0.878471 -0.064482,-0.111687 -6.471e-4,-0.377141 0.1418478,-0.589914 0.1425055,-0.212771 0.4220187,-0.689564 0.6211534,-1.059559 0.327356,-0.608224 0.341908,-0.619142 0.151853,-0.113909 -0.3606657,0.958738 -0.0099,0.651152 0.708998,-0.621668 0.378794,-0.670697 0.579824,-1.1580593 0.446782,-1.0830453 -0.214227,0.1207973 -0.22462,0.102616 -0.09079,-0.158715 0.125856,-0.2456559 0.09578,-0.2666148 -0.179372,-0.124988 -0.271021,0.13952 -0.270785,0.08818 0.0013,-0.2848987 0.182588,-0.2502924 0.247136,-0.4777941 0.143461,-0.5055733 -0.103674,-0.027779 -0.03651,-0.074597 0.149286,-0.1040435 0.208027,-0.032972 0.293335,-0.1304967 0.222097,-0.2538838 -0.08526,-0.1476748 0.161544,-0.3304279 0.938767,-0.6951264 0.81158,-0.3808189 0.948745,-0.4853923 0.59553,-0.4540265 -0.562694,0.049972 -0.681418,-0.1021955 -0.266618,-0.34168 0.1704,-0.098381 0.307047,-0.086549 0.303663,0.026279 -0.0034,0.1128302 0.0371,0.1247707 0.08996,0.026529 0.200824,-0.3732544 1.307056,-0.5825348 1.635942,-0.3094844 0.31043,0.2577222 0.295905,0.2792321 -0.260074,0.3850959 -0.448119,0.085328 -0.59085,0.1783963 -0.597182,0.3893728 -0.0057,0.1899494 -0.175905,0.3210384 -0.540627,0.4163761 -0.513755,0.1342881 -1.411447,0.6873302 -2.138041,1.3171828 -0.113957,0.09878 0.113105,0.4033427 0.42378,0.5684307 0.123865,0.06583 0.157674,0.212636 0.07512,0.3262346 -0.08256,0.113604 0.09516,0.04644 0.394917,-0.1492736 0.358128,-0.233813 0.570006,-0.280695 0.617917,-0.136718 0.04221,0.126868 0.246133,0.119082 0.484421,-0.01849 0.233397,-0.134751 0.328304,-0.282356 0.219283,-0.3410163 -0.105725,-0.056885 -0.09076,-0.1620134 0.0333,-0.2336412 0.334992,-0.193408 2.410846,-0.5737433 2.783833,-0.5100483 0.188603,0.032202 0.285199,-0.010683 0.23192,-0.1029657 -0.08283,-0.1434603 -1.024132,-0.1312025 -2.340969,0.030491 -0.426347,0.052347 -0.39707,0.021866 0.197513,-0.2056226 0.383935,-0.1468969 0.851779,-0.2259113 1.03962,-0.17558 0.187853,0.050337 0.416804,0.048077 0.508769,-0.005 0.09196,-0.053097 0.6963,-0.00385 1.342958,0.1094541 0.646658,0.1132994 1.191267,0.1480268 1.210254,0.077174 0.04392,-0.1639288 -2.214751,-0.5932137 -2.441648,-0.4640631 -0.0932,0.053039 -0.302766,0.060731 -0.465694,0.017077 -0.433111,-0.1160523 -1.678325,0.1542633 -2.27177,0.4931645 -0.283,0.1616134 -0.60105,0.2473 -0.706785,0.1904185 -0.466318,-0.2508866 2.215321,-1.0405286 3.377649,-0.9945396 1.231473,0.048664 4.090263,0.7455636 4.259314,1.038368 0.10153,0.175855 -0.01382,0.1888446 -0.398918,0.044914 C 19.7001,8.6575444 19.331285,8.5213226 19.178453,8.4661883 c -0.152826,-0.055135 -0.365651,0.00817 -0.472962,0.1406161 -0.121406,0.1498912 -0.5204,0.1591259 -1.056364,0.024462 -0.473691,-0.1190273 -0.818202,-0.1418084 -0.765563,-0.050635 0.05265,0.091174 0.424489,0.2338634 0.826322,0.3170932 0.401833,0.083232 0.774883,0.2279998 0.828991,0.3217172 0.05724,0.09914 0.212075,0.045866 0.370229,-0.1273928 0.207606,-0.2274267 0.505598,-0.2288518 1.261176,-0.00606 0.544122,0.1604529 1.007461,0.2240459 1.029649,0.1412959 0.02217,-0.082741 -0.09292,-0.199762 -0.255789,-0.2600386 -0.162852,-0.06027 -0.316184,-0.2218305 -0.340747,-0.359035 -0.02684,-0.1499047 0.140117,-0.1208341 0.418372,0.072857 0.254663,0.1772646 0.511508,0.2943246 0.570763,0.2601136 0.05926,-0.034212 0.529613,0.1284266 1.045233,0.3614062 0.515619,0.232978 0.887195,0.452648 0.825744,0.488126 -0.129087,0.07453 -0.963622,-0.190332 -1.615545,-0.5127215 -0.2466,-0.1219466 -0.490663,-0.1431324 -0.542349,-0.047049 -0.05169,0.096078 0.19682,0.2993251 0.552257,0.4516961 1.298453,0.5565583 1.437071,0.6342313 1.28672,0.7210363 -0.08424,0.04864 -0.552286,-0.09122 -1.040092,-0.31077 C 21.120894,9.6501997 20.273277,9.384082 19.399876,9.2437832 l -0.578998,-0.093001 0.643546,0.2157025 c 0.353951,0.1186312 0.622951,0.2926271 0.597761,0.3866401 -0.02518,0.09401 -0.653256,-0.02681 -1.395716,-0.2684973 -2.059873,-0.6705329 -3.402069,-0.6928947 -3.300942,-0.055068 0.02903,0.1831523 0.12349,0.2515073 0.232602,0.1683243 0.101039,-0.07706 0.302275,-0.197091 0.44717,-0.2668351 0.356162,-0.1712876 2.264446,0.1978471 2.354743,0.4554981 0.03964,0.113143 0.22942,0.3440202 0.421719,0.5130622 0.601002,0.528295 0.197329,0.885463 -0.658537,0.582636 -0.781522,-0.276512 -0.944556,-0.53465 -0.269055,-0.426035 0.358755,0.05768 0.372249,0.03853 0.119346,-0.169431 -0.214877,-0.176682 -0.211987,-0.246054 0.01173,-0.281522 0.525548,-0.0833 0.172377,-0.2646882 -0.807231,-0.4145962 -0.992516,-0.1518964 -1.309573,-0.099321 -1.142813,0.189516 0.05511,0.09544 -0.121038,0.150722 -0.401866,0.126116 -0.274995,-0.0241 -0.890259,0.1173962 -1.367292,0.3144462 -0.626706,0.258872 -0.79722,0.276368 -0.614597,0.06306 0.139001,-0.162359 0.503146,-0.3579312 0.809213,-0.4346122 0.409627,-0.102619 0.58327,-0.23939 0.658001,-0.5182573 0.06098,-0.2275892 0.02889,-0.3369203 -0.08037,-0.2738368 -0.10003,0.057751 -0.161683,0.2036668 -0.137007,0.3242605 0.03366,0.1645016 -0.06744,0.2228736 -0.40486,0.2337466 -0.247349,0.008 -0.707758,0.163464 -1.023139,0.34555 -0.315384,0.1820862 -0.615197,0.2586992 -0.666263,0.1702512 -0.05107,-0.08844 -0.162935,-0.120346 -0.24861,-0.07089 -0.08566,0.04946 -0.03646,0.189908 0.109343,0.312099 0.250026,0.209532 0.238363,0.216882 -0.20503,0.129256 -0.323569,-0.06396 -0.517174,-0.0034 -0.620951,0.194411 -0.112691,0.214712 -0.09674,0.256966 0.06311,0.167132 0.117642,-0.06615 0.371889,-0.07789 0.564961,-0.02615 0.29895,0.08011 0.288474,0.149063 -0.07065,0.464638 -0.433493,0.380966 -1.03206,1.498112 -1.054595,1.968233 -0.007,0.145616 -0.04564,0.412882 -0.08592,0.593942 -0.08132,0.365543 -0.09369,1.222206 -0.01949,1.350733 0.02622,0.04542 0.120046,0.04081 0.208494,-0.01026 0.08844,-0.05107 0.10831,-0.183782 0.04415,-0.29492 -0.212648,-0.368317 0.366833,-2.497368 0.850374,-3.124413 0.618712,-0.802381 2.753745,-1.9261392 2.395933,-1.261098 -0.06927,0.128752 -0.375457,0.296289 -0.680426,0.372292 -1.355451,0.33789 -2.354777,1.987676 -2.27545,3.756421 0.01832,0.407832 -0.0776,0.613612 -0.316498,0.679165 -0.245908,0.06748 -0.31636,0.240631 -0.249332,0.612748 0.05138,0.285281 0.107695,0.703432 0.125125,0.929231 0.02498,0.323539 -0.0063,0.296172 -0.147702,-0.129137 z m 0.353008,-5.993138 c 0.277711,-0.671076 -0.01871,-0.362523 -0.462498,0.481452 -0.222612,0.423334 -0.478538,0.812323 -0.568749,0.864407 -0.0902,0.05208 -0.102595,0.201056 -0.02754,0.331052 0.132972,0.230313 0.529284,-0.39736 1.058787,-1.676923 z m 0.953526,-2.7294536 c -0.136312,0.019221 -0.317231,0.1236745 -0.40203,0.2321114 -0.0848,0.1084397 0.02673,0.092722 0.247847,-0.034943 0.221117,-0.1276612 0.290496,-0.2163824 0.154183,-0.1971716 z m -0.927449,8.4001136 c -0.05304,-0.32316 -0.03993,-0.62019 0.02912,-0.660062 0.1671,-0.09648 0.200675,-0.02009 0.259514,0.590532 0.06988,0.725182 -0.171496,0.78333 -0.288646,0.06953 z m -3.6236518,1.770493 c -0.025683,-0.162062 0.062962,-0.357975 0.1969966,-0.435361 0.1983946,-0.114542 0.2323806,-0.07437 0.1827781,0.216099 -0.03351,0.196239 -0.1221582,0.392151 -0.1969966,0.435359 -0.074837,0.04321 -0.1570912,-0.05404 -0.1827771,-0.216097 z M 9.0447751,17.053756 C 8.8293754,16.452524 8.748512,15.7176 8.8665691,15.43428 c 0.032356,-0.07766 0.029289,-0.220606 -0.00683,-0.31769 -0.036106,-0.09708 -0.075741,-0.604886 -0.088097,-1.128421 -0.016471,-0.697875 0.172403,-1.336204 0.7076757,-2.391923 0.4015592,-0.791997 0.8346052,-1.498896 0.9622772,-1.570886 0.221249,-0.1247413 -0.03392,0.41148 -0.539123,1.132863 -0.129277,0.184603 -0.3965722,0.817141 -0.593963,1.405655 -0.3286923,0.979909 -0.3410703,1.63472 -0.08703,4.595153 0.040712,0.474313 0.028116,0.466818 -0.1768444,-0.105278 z m 0.4974683,0.1494 c -0.098427,-0.05296 -0.1316438,-0.184207 -0.073837,-0.291657 0.057818,-0.107449 0.1702511,-0.08255 0.2498628,0.05534 0.163079,0.28246 0.0906,0.379762 -0.1760244,0.236305 z m 9.7499826,-5.781868 c -0.337177,-0.2731 -0.252581,-0.539388 0.110786,-0.348677 0.363777,0.190912 0.470058,0.365644 0.28676,0.471471 -0.07898,0.0456 -0.257886,-0.0097 -0.397551,-0.122791 z M 8.4879301,17.435453 c -0.047558,-0.08238 -0.061328,-0.351585 -0.030597,-0.598229 0.046943,-0.376775 0.080857,-0.407091 0.2121025,-0.189696 0.085943,0.142315 0.099683,0.411527 0.030597,0.598228 -0.069097,0.186703 -0.1645453,0.272065 -0.2121016,0.189696 z m -0.5816559,0.106678 c -0.051068,-0.08844 -0.036308,-0.313557 0.032798,-0.500265 0.070087,-0.18936 0.1666895,-0.268353 0.2184814,-0.178646 0.051068,0.08844 0.036299,0.313558 -0.032798,0.500264 -0.070087,0.189358 -0.1666895,0.268352 -0.2184814,0.178647 z M 7.3264019,17.280523 c -0.1656817,-0.286969 -0.2209247,-1.392777 -0.096482,-1.931162 0.042145,-0.182325 0.019019,-0.431284 -0.051395,-0.553241 -0.070414,-0.121955 -0.042702,-0.365033 0.061549,-0.540189 0.1042743,-0.175144 0.1170437,-0.337882 0.028356,-0.361651 -0.230771,-0.06184 -0.521984,1.148268 -0.3195316,1.327784 0.092895,0.08238 0.054337,0.21594 -0.085703,0.296789 -0.1400382,0.08085 -0.2128467,0.219372 -0.1617817,0.307818 0.051068,0.08844 0.011894,0.207548 -0.087049,0.264676 -0.2694195,0.15555 -0.04426,-1.425147 0.4353272,-3.056361 0.423957,-1.441909 0.4489448,-1.742515 0.129517,-1.558093 -0.093665,0.05408 -0.070434,0.152057 0.051626,0.217735 0.1282063,0.06898 0.1267274,0.116554 -0.00356,0.112647 -0.1239909,-0.0038 -0.3771736,0.697346 -0.5626297,1.55793 -0.2134881,0.990733 -0.4412975,1.581193 -0.6210304,1.609679 -0.2361124,0.03742 -0.2533222,-0.0062 -0.1023695,-0.259848 0.099814,-0.167659 0.3715169,-1.028341 0.6038139,-1.912606 0.3021718,-1.150321 0.5001992,-1.586919 0.6960332,-1.534446 0.1958215,0.05247 0.3053334,-0.04472 0.3848622,-0.341567 0.1249909,-0.466476 0.2115025,-0.559445 0.3298299,-0.354496 0.084318,0.146042 -0.3030065,1.58783 -0.6808725,2.534485 -0.1205004,0.30191 -0.1385064,0.570699 -0.039952,0.597301 C 7.4592414,13.764267 8.2496556,11.4918 8.1014903,11.21239 8.0416533,11.099525 8.1624723,10.909164 8.3699916,10.789351 8.8377865,10.51927 9.5267946,9.5058344 9.3187297,9.3938725 9.1766876,9.3174485 9.8520093,8.5428567 10.654679,7.8615765 10.843465,7.701341 11.014208,7.4957059 11.034101,7.4046183 c 0.0199,-0.091088 -0.176343,0.017731 -0.436099,0.2417894 -0.327929,0.2829168 -0.470056,0.333475 -0.465003,0.1654336 0.01306,-0.4354205 3.437306,-1.8107559 5.380716,-2.1611312 0.320427,-0.05777 1.109699,-0.076443 1.753928,-0.041462 1.076587,0.058433 1.518136,-0.073953 1.063165,-0.3187528 -0.442531,-0.2381124 -3.792099,0.1805963 -5.263074,0.6579241 -0.873115,0.2833091 -1.373679,0.3840391 -1.112391,0.2238353 0.261297,-0.1601865 1.0084,-0.4538255 1.660228,-0.6525 0.651828,-0.1986773 1.281416,-0.4033557 1.399094,-0.4548852 0.117664,-0.05152 0.248771,-0.033347 0.291323,0.040366 0.04255,0.073703 0.168084,0.082232 0.278958,0.018943 0.11089,-0.063251 0.476581,-0.1268745 0.812677,-0.1413103 0.336101,-0.014433 0.636621,-0.1214957 0.667826,-0.237923 0.03119,-0.1164244 -0.306954,-0.1722203 -0.751429,-0.1239813 -0.444492,0.048241 -0.840818,0.031135 -0.880735,-0.038 -0.03992,-0.069145 0.389227,-0.1614433 0.953648,-0.2051293 0.564428,-0.043674 1.068847,-0.00558 1.120941,0.084636 0.0521,0.090232 0.0033,0.1613124 -0.108399,0.1579595 -0.111712,-0.00337 -0.206116,0.093693 -0.209773,0.2156651 -0.0037,0.1219601 0.05891,0.1838964 0.139043,0.1376362 0.203289,-0.1173687 1.166383,0.084597 1.271483,0.2666349 0.04763,0.082501 0.05048,0.2847726 0.0063,0.4494966 -0.06169,0.2302489 -0.242907,0.2813668 -0.783635,0.2210642 -1.482211,-0.1653145 -3.910513,0.2642185 -5.426784,0.9598199 -0.434143,0.1991783 -0.888419,0.3591697 -1.00949,0.3555321 -0.121082,-0.00365 -0.175905,0.070039 -0.121827,0.1637029 0.05408,0.093665 -0.01022,0.232971 -0.142893,0.3095681 -0.132671,0.076597 -0.199439,0.2116313 -0.148374,0.3000785 0.108252,0.1874974 0.136907,0.1716674 0.920259,-0.5083512 0.480963,-0.417526 0.602558,-0.4637881 0.637607,-0.2425721 0.02383,0.1503316 -0.08098,0.329927 -0.232897,0.3991172 -0.885671,0.403299 -1.451918,0.8747277 -1.321643,1.1003688 0.179839,0.3114912 -0.04852,0.4391234 -0.492022,0.2749648 -0.250736,-0.092799 -0.369807,-0.051741 -0.422723,0.1457757 -0.05292,0.1975225 0.01478,0.2776177 0.240409,0.2843803 0.240156,0.00721 0.217911,0.100532 -0.09449,0.39652 -0.9109761,0.8630649 -2.3259572,4.3731729 -2.1646688,5.3701099 0.1145273,0.708502 0.3060719,0.897756 0.3035142,0.299907 -0.00279,-0.649575 0.1203946,-0.514831 0.1900435,0.207896 0.036683,0.38063 -0.018116,0.488013 -0.2011966,0.394274 -0.1995562,-0.102184 -0.2548126,-0.06173 -0.2670954,0.195522 -0.00856,0.178395 -0.09504,0.303043 -0.1922629,0.276998 -0.097225,-0.02605 -0.1489056,-0.210508 -0.114858,-0.409906 0.034048,-0.1994 0.017568,-0.336955 -0.036616,-0.305671 -0.054183,0.03128 -0.063847,-0.17387 -0.021452,-0.4559 0.1253918,-0.834357 0.823052,-3.491599 0.8873364,-3.380256 0.032597,0.05646 0.105706,-0.02581 0.1624711,-0.182816 0.2498655,-0.69119 0.88192,-1.80109 1.0960338,-1.9247089 0.2324327,-0.134196 0.1598957,-0.5183473 -0.07355,-0.389426 -0.3567538,0.19709 -1.5898174,2.4433469 -1.8977432,3.4572679 -0.3660072,1.205158 -0.5568229,3.525645 -0.3231538,3.930372 0.072597,0.125734 0.085443,0.31511 0.028548,0.420826 -0.056885,0.105725 -0.1725664,0.07248 -0.2570626,-0.07387 z M 10.744867,8.3463198 c 0.117835,-0.2299979 0.05328,-0.2393356 -0.292437,-0.042289 -0.24399,0.1390911 -0.401877,0.3252221 -0.35081,0.4136722 0.117391,0.2033274 0.446008,0.013596 0.643247,-0.3713784 z M 22.03019,8.6741631 C 21.777536,8.5940083 21.60721,8.5074159 21.651689,8.4817358 21.696161,8.4560624 21.28312,8.3387206 20.7338,8.2210029 20.184498,8.1032746 19.271646,7.9014049 18.705255,7.7724053 18.138863,7.6434047 17.040467,7.5242841 16.264373,7.5077262 14.777752,7.4759758 14.615859,7.3026065 16.018442,7.2443587 c 1.499673,-0.062289 1.7842,-0.041347 1.738843,0.1279255 -0.0247,0.092184 0.02505,0.1272112 0.110542,0.077847 0.0855,-0.049366 0.185732,-0.202763 0.222746,-0.3408925 0.04441,-0.1657529 0.494842,-0.2000139 1.324779,-0.1007829 0.691609,0.082703 1.319741,0.2021216 1.395829,0.2654012 0.07609,0.06327 0.180907,0.035924 0.232933,-0.06077 0.05203,-0.096692 0.187903,-0.014202 0.301946,0.1833291 L 21.553415,7.7555657 20.895597,7.6155506 C 20.533799,7.53854 19.795543,7.3728669 19.255055,7.2474049 18.714557,7.1219226 18.232993,7.09238 18.184912,7.1817599 c -0.07425,0.1380006 1.604794,0.6596818 1.78618,0.5549584 0.0346,-0.019981 0.49132,0.097959 1.014965,0.2620916 0.523634,0.1641135 0.979167,0.2480856 1.012308,0.1865733 0.03314,-0.06152 0.171138,0.056097 0.306655,0.2613637 0.135511,0.2052707 0.232471,0.3732092 0.215463,0.3731919 -0.01698,3.27e-5 -0.237647,-0.065597 -0.490304,-0.1457546 z m -9.064405,2.0330259 c -0.05107,-0.08844 -0.02048,-0.202591 0.06796,-0.253657 0.08844,-0.05107 0.202591,-0.02048 0.253657,0.06796 0.05107,0.08844 0.02048,0.202589 -0.06797,0.253654 -0.08844,0.05107 -0.202591,0.02048 -0.253655,-0.06796 z M 19.621306,6.6799463 C 19.315324,6.6371092 18.36924,6.5561573 17.518902,6.5000672 16.668564,6.44398 16.077909,6.3400826 16.206314,6.2691837 c 0.128413,-0.070914 0.885738,-0.081857 1.682905,-0.024346 0.797166,0.05751 1.492368,0.024712 1.544886,-0.072905 0.05252,-0.097608 -0.0775,-0.1961889 -0.288932,-0.2190718 -0.336641,-0.036423 -0.360617,-0.070962 -0.192964,-0.2779716 0.105638,-0.1304169 0.247717,-0.1516796 0.316901,-0.04751 0.185415,0.2791465 0.473677,0.5828251 0.78474,0.8266962 0.350947,0.2751417 0.259698,0.3227894 -0.43255,0.2258719 z M 5.7251513,14.12671 c -0.1266245,-0.20855 0.3022296,-1.974834 0.7256634,-2.98897 0.2969525,-0.711107 0.3133537,-1.1449663 0.036798,-0.97392 -0.065183,0.0403 -0.3187768,0.716592 -0.5635336,1.502845 -0.2447769,0.786264 -0.4867461,1.418394 -0.5377025,1.404739 -0.1774953,-0.04756 0.3341386,-2.040749 0.5568441,-2.169328 0.1233813,-0.07123 0.1440527,-0.172704 0.045933,-0.225498 -0.098119,-0.05279 -0.059328,-0.22642 0.086203,-0.385827 0.1455267,-0.15942 0.2256267,-0.3573443 0.178003,-0.4398313 -0.047616,-0.08248 0.00969,-0.205563 0.1273727,-0.273504 C 6.4984143,9.5094729 6.8425597,9.0610378 7.1454863,8.5808898 7.4626612,8.0781753 7.5439641,7.8466379 7.3371665,8.0350228 6.6161868,8.691769 5.9078371,9.8472057 5.5948065,10.877019 5.4185669,11.456968 5.2519909,11.944396 5.2246368,11.960189 5.1972903,11.975977 5.05533,11.892024 4.9091677,11.773647 4.7630054,11.655256 4.7215164,11.579319 4.8169743,11.604919 c 0.2231795,0.0598 0.6187025,-0.570355 0.4937895,-0.78671 -0.05228,-0.09055 -0.1487922,-0.06478 -0.214466,0.05729 -0.073982,0.137502 -0.1165399,0.126097 -0.1118581,-0.02997 0.00413,-0.138549 0.1480133,-0.333 0.3196903,-0.432117 0.1716722,-0.09912 0.2740398,-0.246178 0.2274864,-0.32681 C 5.4609424,9.9641827 6.5176549,8.5599415 7.3819536,7.6278171 7.5091329,7.4906472 7.5376487,7.2501549 7.4453389,7.0933771 7.3089671,6.8617888 7.2750946,6.8670648 7.2647531,7.1214255 7.2577338,7.2936285 7.0979396,7.5574153 6.9096278,7.707619 6.721316,7.8578217 6.2328265,8.4590346 5.8241006,9.0436309 5.4153746,9.6282267 5.0635762,10.021636 5.0423491,9.9178727 5.021118,9.8140957 5.0710994,9.7144247 5.1534244,9.6963737 5.2357523,9.6783357 5.3072599,9.5250837 5.3123436,9.3558374 5.3225649,9.0147498 6.3724022,7.6529577 6.828248,7.3894931 6.9882076,7.2970497 7.0351149,7.1762262 6.9324973,7.1210044 6.8298682,7.0657826 6.9153432,6.8564695 7.1224447,6.6558623 7.3618475,6.4239442 7.5607268,6.3458731 7.6685531,6.4414819 c 0.09327,0.082703 0.2436557,0.1076042 0.334201,0.055328 0.09054,-0.05227 0.067145,-0.1739886 -0.051981,-0.2704753 C 7.8174423,6.1183435 7.8481196,5.9368798 8.0305718,5.7543604 8.4987561,5.2859625 8.6648158,5.2473602 8.4975225,5.6458177 8.4125888,5.848123 8.3811625,6.2491393 8.4276947,6.5369619 8.5016668,6.9945134 8.552227,7.0372409 8.8299447,6.8768996 9.0046477,6.7760349 9.1050037,6.6197667 9.0529684,6.5296378 9.0009294,6.4395021 9.1445753,6.3122814 9.3721732,6.2469162 9.5997816,6.18155 10.032964,5.8873706 10.334829,5.5931642 L 10.883662,5.058256 10.069959,5.5986191 C 9.3251015,6.0932701 8.881526,6.1515477 9.2727633,5.703353 9.3614855,5.6017086 9.2709364,5.6537467 9.0715254,5.8190236 8.8077165,6.03763 8.7285483,6.0434888 8.7808787,5.8405143 8.8949637,5.3980321 9.6464706,4.8268138 9.6967998,5.1443426 c 0.02476,0.1561855 0.166376,0.2027082 0.3492722,0.1147071 0.202966,-0.097641 0.232232,-0.2090582 0.08607,-0.3274712 -0.121856,-0.098693 -0.1391742,-0.227018 -0.03849,-0.2851447 0.100685,-0.058126 0.286985,-0.021519 0.41401,0.081366 0.127016,0.102882 0.27758,0.1003867 0.334574,-0.00558 0.06377,-0.1185129 -0.0115,-0.1981995 -0.195659,-0.2071198 -0.498693,-0.024202 1.427455,-0.6502192 3.094971,-1.0059137 0.0525,-0.011202 0.460216,-0.057039 0.90605,-0.1018791 1.272108,-0.1279073 0.658695,0.2427865 -0.717107,0.4333637 -1.584453,0.2194728 -2.276262,0.4686594 -2.660425,0.958246 l -0.30883,0.3935392 0.397194,-0.2404884 c 0.668048,-0.4044961 2.235497,-0.8618861 3.109024,-0.9072819 0.455407,-0.023635 0.943714,-0.1097801 1.085127,-0.1914253 0.141411,-0.081645 0.254179,-0.050616 0.250596,0.068943 -0.0041,0.1363401 -0.244624,0.2284364 -0.645135,0.2470145 -0.459123,0.021289 -0.659338,0.1069724 -0.712369,0.3048642 -0.05302,0.197884 4.15e-4,0.2324219 0.190138,0.1228851 0.145138,-0.083799 0.359653,-0.1008233 0.476715,-0.037847 0.138292,0.074414 0.08874,0.1435122 -0.141456,0.1972965 -1.626507,0.3800651 -3.327586,1.0999438 -4.70563,1.991361 C 8.9400517,7.6051235 8.8101444,7.6585193 8.9657405,7.2819745 9.129902,6.8846804 9.1187885,6.8801563 8.7449754,7.1918677 8.5284844,7.3724064 8.3538592,7.4361206 8.3569429,7.3334472 c 0.00308,-0.1026704 -0.1434017,-0.1006483 -0.325524,0.00452 -0.1821108,0.1051417 -0.2868745,0.267808 -0.232795,0.3614754 0.054077,0.093665 0.1460248,0.081655 0.2043149,-0.026693 0.058299,-0.1083464 0.1414478,-0.089655 0.1847627,0.041481 0.043328,0.1311611 0.1631192,0.1632606 0.2662243,0.071337 C 8.557028,7.6936436 8.6383626,7.7190376 8.634677,7.8420196 8.6310231,7.964998 8.5237016,8.1258191 8.3962549,8.1994007 8.2688054,8.2729881 8.2087796,8.4098215 8.2628582,8.503488 8.3169357,8.5971525 8.2620466,8.6708149 8.1408788,8.6671774 8.019713,8.6635235 7.8168904,8.9196852 7.6901303,9.2363793 7.5633951,9.5530687 7.3697659,9.8640947 7.2598492,9.9275547 7.1499345,9.9910147 7.0325831,10.203497 6.9990904,10.399728 6.9103394,10.919456 7.1542239,10.693275 7.6274766,9.8169207 8.0976139,8.9463143 8.3504381,8.7170001 8.2607081,9.2425034 c -0.03351,0.1962398 -0.00702,0.3256773 0.058857,0.2876423 0.065885,-0.038039 0.092376,0.0914 0.058856,0.28764 -0.03351,0.1962403 -0.1382622,0.4014493 -0.2327883,0.4560243 -0.09452,0.05458 -0.092722,-0.08813 0.00394,-0.3170953 C 8.3232364,9.5455377 8.3215316,9.5425407 8.0113048,9.7149207 7.8384797,9.8109307 7.6187117,10.149333 7.5228971,10.466908 7.3772147,10.949772 7.3031571,11.01978 7.070437,10.894565 6.762453,10.728848 6.6445862,11.00676 6.1068731,13.166206 5.9525463,13.785977 5.7807914,14.218167 5.725209,14.126613 Z M 8.0682366,8.02329 C 7.7309807,8.09231 6.4701832,10.008836 6.71829,10.075333 6.7953005,10.095968 7.1748675,9.6336287 7.5617807,9.0479107 7.9486949,8.4621923 8.1765966,8.0011301 8.0682174,8.0233015 Z M 14.25233,4.3940116 C 14.20834,4.3178186 13.905346,4.3361646 13.579025,4.4347906 13.2527,4.5334156 12.861972,4.6504844 12.710745,4.6949359 12.141253,4.862322 9.6032913,6.4283923 9.4301344,6.719265 9.3077272,6.9248694 9.6599054,6.7816792 10.523448,6.2747376 12.068012,5.3679827 13.710103,4.659333 13.957829,4.7925683 14.160832,4.9017936 14.376773,4.6095488 14.252328,4.3940049 Z m 3.129235,2.6254858 c -1.211732,-0.023096 -1.958771,-0.089386 -1.832055,-0.1625423 0.247575,-0.1429373 2.362348,-0.2095804 2.438976,-0.076857 0.0996,0.1725078 -0.09475,0.2491664 -0.606939,0.2394096 z m -6.788293,3.6638136 c 0.03351,-0.196237 0.133291,-0.39858 0.221731,-0.44964 0.0897,-0.05179 0.133869,0.06492 0.09989,0.263954 -0.03351,0.19624 -0.133291,0.39858 -0.22173,0.44964 -0.0897,0.05179 -0.13387,-0.06492 -0.09989,-0.263954 z m 2.124574,-1.3338342 -0.709742,0.2562059 0.670278,-0.4174069 c 0.368647,-0.2295604 0.712055,-0.3450425 0.763118,-0.2565982 0.05107,0.088443 0.06883,0.1609837 0.03946,0.1612029 -0.02936,2.067e-4 -0.372753,0.1156812 -0.763118,0.2565992 z m -0.944943,0.03452 c -0.01959,-0.033914 0.125345,-0.2006922 0.322059,-0.3706249 0.196703,-0.1699251 0.393645,-0.2466347 0.437627,-0.1704569 0.04398,0.076174 -0.100943,0.2429606 -0.322061,0.3706227 -0.221106,0.1276563 -0.418049,0.2043658 -0.437626,0.1704568 z m 3.619143,-2.8548917 c -0.206868,0.036654 -0.330442,-0.01826 -0.274616,-0.1220044 0.106694,-0.1983042 0.748702,-0.2518972 0.686662,-0.057328 -0.01976,0.061981 -0.205184,0.1426892 -0.412052,0.1793406 z M 8.6521233,9.504845 C 8.6384982,9.0818255 9.0707648,8.4344506 9.3648115,8.4374901 9.4617733,8.4384516 9.4930958,8.2643534 9.4344181,8.0505057 9.3757444,7.8366618 9.3351612,7.6522933 9.344244,7.6407826 c 0.00913,-0.011481 0.4024808,-0.2949044 0.874206,-0.6297584 0.550316,-0.3906498 0.934666,-0.5674326 1.072457,-0.4932875 0.146599,0.078876 0.05489,0.172276 -0.288879,0.2942342 C 10.304816,7.059319 9.5399627,7.7445742 9.6835248,7.99323 9.8280188,8.2435022 9.5366847,8.6829593 8.9135014,9.1546629 c -0.099995,0.075713 -0.089097,0.2127458 0.024241,0.304544 0.1148619,0.09304 0.1000973,0.2281048 -0.033375,0.3051648 C 8.7194046,9.8711597 8.6619982,9.8120917 8.652099,9.5048171 Z M 16.056534,4.0761242 c 0.02259,-0.084289 0.157986,-0.1700779 0.300875,-0.1906647 0.157923,-0.022721 0.141819,0.037375 -0.04107,0.1532518 -0.165482,0.1048676 -0.282421,0.121686 -0.259834,0.037404 z M 5.1704313,8.346614 C 5.2536054,8.1842794 5.4301979,7.9887905 5.5628667,7.9121945 5.7772885,7.7883978 5.7872886,7.8057182 5.6528678,8.0680799 5.5697033,8.2304145 5.3931003,8.4259024 5.2604324,8.5024985 5.0460097,8.6262952 5.0360096,8.6089748 5.1704313,8.346614 Z M 13.393263,3.277536 C 13.09918,3.278786 12.65808,3.3921604 12.413026,3.5294553 12.167977,3.6667146 11.920854,3.6982794 11.863836,3.5995233 11.803056,3.4942577 11.61078,3.5490133 11.399099,3.7318768 11.200508,3.903426 10.97789,4.0114244 10.904383,3.9718797 10.830882,3.9323312 10.289436,4.2021382 9.7011718,4.571456 9.0821784,4.9600654 8.7357916,5.1135855 8.8789125,4.935869 9.0149353,4.766968 9.8712988,4.1858274 10.781918,3.6444528 c 1.379627,-0.8202106 1.6465,-0.9303889 1.600456,-0.6607818 -0.04436,0.2597617 0.07883,0.2792985 0.62481,0.099124 0.37403,-0.1234351 0.721756,-0.2616887 0.772721,-0.3072344 0.05095,-0.045549 0.194788,-9.13e-5 0.319608,0.1010099 0.284652,0.2305585 -0.01028,0.3980123 -0.706282,0.4009999 z M 5.8428527,7.6543885 C 5.8105927,7.5985129 5.928796,7.3753958 6.1055327,7.1585817 6.3010629,6.9186943 6.3398268,6.7175342 6.2045714,6.6447535 6.0823094,6.5789739 6.0736679,6.5278877 6.1853596,6.5312397 6.4948268,6.5405667 8.0250034,5.0442193 8.0346757,4.7228674 8.0412142,4.5038985 8.1113208,4.458546 8.3459659,4.521416 8.6836872,4.6118882 8.6388386,4.6800362 7.1911609,6.2760434 6.722765,6.7924313 6.2409699,7.3366867 6.1204993,7.4854779 6.0000315,7.6342729 5.8750685,7.710295 5.8428277,7.654452 Z M 8.5491231,4.4435276 C 8.3550131,4.1590502 8.3976213,4.0956937 8.8994426,3.9223695 10.355673,3.4194194 11.162294,2.9072268 10.802744,2.7137668 c -0.09465,-0.050924 -0.134179,-0.1144802 -0.08787,-0.1412209 0.04634,-0.02675 0.239638,0.047885 0.429574,0.1658424 0.325863,0.2023985 0.281443,0.2516481 -0.788017,0.8736218 C 9.7331048,3.9745548 9.1211539,4.3827923 8.9965937,4.5192525 8.8343813,4.6969556 8.7073884,4.6754553 8.5491106,4.4435305 Z M 6.6233004,5.4778802 C 7.1862782,4.8669739 7.6747705,4.5806023 7.6645877,4.8674778 7.6611261,4.9636847 7.3068334,5.2691229 6.8771841,5.5462406 L 6.0960047,6.0500937 6.6233071,5.4778927 Z"
     inkscape:export-xdpi="311.82001"
     inkscape:export-ydpi="311.82001"
     inkscape:export-filename="C:\_Development\PoliceAnalyzer\src\resource\frame-fingerprint.png" />
  <g
     inkscape:groupmode="layer"
     id="layer1"
     inkscape:label="text">
    <text
       xml:space="preserve"
       style="font-style:normal;font-variant:normal;font-weight:normal;font-stretch:normal;font-size:40px;line-height:125%;font-family:'Franklin Gothic Heavy';-inkscape-font-specification:'Franklin Gothic Heavy, ';letter-spacing:0px;word-spacing:0px;fill:#ff2a2a;fill-opacity:1;stroke:none;stroke-width:1px;stroke-linecap:butt;stroke-linejoin:miter;stroke-opacity:1"
       x="2.5564654"
       y="26.088173"
       id="text3466"
       sodipodi:linespacing="125%"
       inkscape:export-filename="C:\_Development\PoliceAnalyzer\src\resource\frame-fingerprint.png"
       inkscape:export-xdpi="311.82001"
       inkscape:export-ydpi="311.82001"><tspan
         sodipodi:role="line"
         id="tspan3468"
         x="2.5564654"
         y="26.088173"
         style="font-style:normal;font-variant:normal;font-weight:normal;font-stretch:normal;font-size:5px;font-family:'Franklin Gothic Heavy';-inkscape-font-specification:'Franklin Gothic Heavy, ';fill:#ff2a2a">TYP</tspan></text>
  </g>
</svg>
